<svg xmlns="http://www.w3.org/2000/svg" viewBox="0 0 5172 3284"><title>flash sheet</title><style>
g[class^=an-]{transform-box:fill-box;transform-origin:50% 50%}
.an-sway,.an-stalk{transform-origin:50% 92%}
.an-pulse{animation:an-pulse var(--dur,3.2s) ease-in-out infinite}
@keyframes an-pulse{0%,100%{transform:scale(1)}50%{transform:scale(calc(1 + var(--am,1)*.024))}}
.an-sway{animation:an-sway var(--dur,3.8s) ease-in-out infinite}
@keyframes an-sway{0%,100%{transform:rotate(calc(var(--am,1)*-2.6deg))}50%{transform:rotate(calc(var(--am,1)*2.6deg))}}
.an-bob{animation:an-bob var(--dur,3.4s) ease-in-out infinite}
@keyframes an-bob{0%,100%{transform:translateY(calc(var(--am,1)*-8px))}50%{transform:translateY(calc(var(--am,1)*8px))}}
.an-spin{animation:an-spin var(--dur,26s) linear infinite}
@keyframes an-spin{to{transform:rotate(360deg)}}
.an-flicker{animation:an-flicker var(--dur,2.6s) linear infinite}
@keyframes an-flicker{0%,58%,64%,86%,92%,100%{opacity:1}61%{opacity:calc(1 - var(--am,1)*.55)}89%{opacity:calc(1 - var(--am,1)*.35)}}
.an-shiver{animation:an-shiver var(--dur,.9s) linear infinite}
@keyframes an-shiver{0%,100%{transform:translate(0,0) rotate(0)}12%{transform:translate(calc(var(--am,1)*5px),calc(var(--am,1)*-4px)) rotate(calc(var(--am,1)*.6deg))}25%{transform:translate(calc(var(--am,1)*-4px),calc(var(--am,1)*3px)) rotate(calc(var(--am,1)*-.5deg))}40%{transform:translate(calc(var(--am,1)*3px),calc(var(--am,1)*4px)) rotate(calc(var(--am,1)*.4deg))}55%{transform:translate(calc(var(--am,1)*-5px),calc(var(--am,1)*-2px)) rotate(calc(var(--am,1)*-.6deg))}70%{transform:translate(calc(var(--am,1)*4px),calc(var(--am,1)*2px)) rotate(calc(var(--am,1)*.5deg))}85%{transform:translate(calc(var(--am,1)*-2px),calc(var(--am,1)*-4px)) rotate(calc(var(--am,1)*-.3deg))}}
.an-stalk{animation:an-stalk var(--dur,1.9s) ease-in-out infinite}
@keyframes an-stalk{0%,100%{transform:rotate(calc(var(--am,1)*-2.2deg)) translateY(0)}25%{transform:rotate(0deg) translateY(calc(var(--am,1)*-9px))}50%{transform:rotate(calc(var(--am,1)*2.2deg)) translateY(0)}75%{transform:rotate(0deg) translateY(calc(var(--am,1)*-9px))}}
.an-crawl{animation:an-crawl var(--dur,1.6s) linear infinite}
@keyframes an-crawl{0%,100%{transform:translateX(0) rotate(0)}15%{transform:translateX(calc(var(--am,1)*8px)) rotate(calc(var(--am,1)*.5deg))}30%{transform:translateX(calc(var(--am,1)*3px)) rotate(calc(var(--am,1)*-.4deg))}50%{transform:translateX(calc(var(--am,1)*-8px)) rotate(calc(var(--am,1)*.4deg))}65%{transform:translateX(calc(var(--am,1)*-3px)) rotate(calc(var(--am,1)*-.5deg))}85%{transform:translateX(calc(var(--am,1)*5px)) rotate(0)}}
.an-wave{animation:an-wave var(--dur,3s) ease-in-out infinite}
@keyframes an-wave{0%,100%{transform:translateX(calc(var(--am,1)*-15px)) rotate(calc(var(--am,1)*-1.4deg))}50%{transform:translateX(calc(var(--am,1)*15px)) rotate(calc(var(--am,1)*1.4deg))}}
@media(prefers-reduced-motion:reduce){g[class^=an-]{animation:none!important}}
</style><rect width="5172" height="3284" fill="#fff"/><g stroke="#1A1919" stroke-opacity=".32" stroke-width="4"><line x1="862" y1="0" x2="862" y2="3284"/><line x1="1724" y1="0" x2="1724" y2="3284"/><line x1="2586" y1="0" x2="2586" y2="3284"/><line x1="3448" y1="0" x2="3448" y2="3284"/><line x1="4310" y1="0" x2="4310" y2="3284"/><line x1="0" y1="821" x2="5172" y2="821"/><line x1="0" y1="1642" x2="5172" y2="1642"/><line x1="0" y1="2463" x2="5172" y2="2463"/></g><svg x="296.0" y="144.5" width="270.0" height="532.0" viewBox="0 0 270 532" overflow="visible"><filter id="f121" x="-15%" y="-15%" width="130%" height="130%"><feTurbulence type="fractalNoise" baseFrequency="0.0079" numOctaves="2" seed="11" result="n"><animate attributeName="seed" values="11;27;5;19;33;9;23;3" dur="1.143s" calcMode="discrete" repeatCount="indefinite"/></feTurbulence><feDisplacementMap in="SourceGraphic" in2="n" scale="10.21" xChannelSelector="R" yChannelSelector="G"/></filter><g filter="url(#f121)"><path d="M0 0 C5 6 5 6 6 8 C7 9 7 10 7 10 C8 11 8 12 9 12 C9 13 9 14 10 14 C11 16 11 17 12 19 C14 21 15 23 16 26 C17 27 18 28 19 30 C19 30 20 31 20 32 C22 35 23 38 24 41 C24 41 23 42 23 42 C20 44 18 46 16 48 C15 49 15 50 14 50 C13 51 12 52 12 53 C11 53 11 53 10 54 C8 56 7 57 6 58 C6 61 6 61 6 64 C6 65 6 66 6 66 C7 69 7 71 7 73 C7 75 7 76 7 78 C9 100 12 121 14 143 C18 144 22 144 26 145 C28 145 29 145 30 145 C32 146 34 146 36 146 C37 146 37 146 40 147 C43 147 43 147 47 147 C56 124 59 101 61 76 C64 53 67 30 85 14 C90 10 96 7 102 5 C100 10 99 16 97 21 C101 25 104 28 108 31 C109 32 109 32 110 33 C111 34 113 35 114 36 C114 37 113 39 113 40 C112 40 110 40 109 40 C100 39 91 39 82 40 C80 51 79 63 77 74 C77 76 77 78 77 80 C75 92 75 92 75 97 C74 101 74 104 73 108 C73 110 73 112 73 113 C71 130 66 142 53 153 C47 157 39 163 31 163 C31 165 30 167 30 169 C30 170 30 170 29 173 C28 181 29 190 30 198 C30 199 30 200 31 201 C32 212 34 222 36 233 C38 239 38 245 38 251 C38 251 38 251 38 253 C38 254 38 256 38 258 C38 260 38 263 38 265 C38 272 38 280 38 287 C39 306 39 326 40 345 C40 346 40 347 40 348 C43 414 43 414 65 435 C70 441 75 448 75 456 C74 457 74 457 71 457 C65 457 60 456 55 455 C55 456 54 456 54 457 C53 458 53 458 52 459 C52 460 51 461 51 462 C49 464 48 465 46 467 C41 435 37 402 33 370 C32 363 31 355 30 348 C29 342 28 336 27 331 C27 327 26 324 26 320 C25 317 25 313 24 309 C24 309 24 309 24 306 C23 298 22 290 24 282 C24 281 24 280 24 279 C25 279 25 278 25 277 C27 267 28 258 23 249 C20 245 17 242 13 240 C13 241 12 241 12 242 C11 245 10 247 8 249 C-4 269 -4 292 -2 314 C-2 315 -1 316 -1 318 C-0 326 1 334 2 342 C6 368 5 393 -10 415 C-18 426 -18 426 -24 430 C-22 417 -21 405 -19 392 C-18 392 -18 391 -18 390 C-17 385 -17 381 -16 376 C-15 371 -14 366 -13 361 C-13 359 -13 357 -13 355 C-10 339 -9 323 -12 307 C-17 281 -13 257 -9 231 C-5 214 -4 197 -4 180 C-4 178 -4 177 -4 176 C-4 169 -4 163 -5 157 C-5 158 -6 159 -6 159 C-15 187 -26 213 -40 239 C-58 273 -59 304 -50 341 C-50 341 -50 342 -50 343 C-50 344 -49 344 -49 345 C-49 347 -49 349 -50 351 C-51 350 -52 349 -52 349 C-54 348 -55 347 -56 346 C-56 345 -57 345 -57 344 C-58 344 -58 344 -59 343 C-59 342 -60 342 -60 341 C-62 340 -64 338 -66 337 C-66 338 -67 339 -67 339 C-74 357 -81 374 -88 392 C-93 387 -91 378 -91 372 C-91 362 -89 354 -86 345 C-86 343 -85 342 -85 340 C-84 337 -83 334 -83 331 C-80 324 -78 316 -77 309 C-71 287 -66 266 -57 245 C-53 236 -49 226 -45 216 C-43 210 -40 204 -38 198 C-38 197 -38 197 -36 194 C-33 187 -31 179 -28 172 C-26 167 -24 163 -22 158 C-21 156 -20 154 -20 152 C-8 121 -8 121 -7 111 C-7 111 -7 111 -6 109 C-5 95 -7 77 -16 64 C-20 60 -25 56 -31 54 C-33 53 -33 53 -34 51 C-34 50 -34 49 -34 48 C-34 47 -34 47 -34 46 C-34 43 -34 41 -35 38 C-35 38 -35 37 -35 36 C-35 29 -35 22 -35 15 C-29 17 -24 20 -19 24 C-19 24 -19 24 -17 25 C-16 25 -15 26 -15 26 C-13 27 -13 27 -11 27 C-7 18 -4 9 0 0 Z " transform="translate(124.0 33.0)" fill="#000"/></g></svg><svg x="1109.5" y="120.0" width="367.0" height="581.0" viewBox="0 0 367 581" overflow="visible"><filter id="f122" x="-15%" y="-15%" width="130%" height="130%"><feTurbulence type="fractalNoise" baseFrequency="0.0072" numOctaves="2" seed="27" result="n"><animate attributeName="seed" values="27;5;19;33;9;23;3;11" dur="1.143s" calcMode="discrete" repeatCount="indefinite"/></feTurbulence><feDisplacementMap in="SourceGraphic" in2="n" scale="11.16" xChannelSelector="R" yChannelSelector="G"/></filter><g filter="url(#f122)"><path d="M0 0 C1 -0 1 -0 4 -0 C23 0 23 0 30 4 C35 10 34 17 34 24 C32 31 26 34 21 37 C17 39 13 41 10 43 C10 45 10 45 12 47 C12 48 13 49 14 50 C15 51 16 52 17 53 C17 53 17 53 19 54 C36 71 47 88 53 111 C53 114 54 117 55 119 C57 127 59 134 60 142 C66 167 66 167 75 178 C78 181 80 185 83 189 C83 189 84 190 84 191 C95 209 107 228 103 250 C102 255 98 258 94 261 C92 258 91 257 91 253 C91 252 91 251 90 250 C90 249 90 247 90 246 C86 223 81 202 64 185 C64 186 64 188 64 189 C73 265 73 265 56 286 C55 287 55 287 52 287 C51 278 53 270 55 261 C59 239 61 218 55 196 C54 194 53 191 53 188 C48 190 48 190 47 192 C46 193 46 194 46 194 C45 195 44 197 43 198 C31 214 30 232 31 251 C31 258 31 264 29 270 C27 272 27 272 25 272 C16 252 22 225 29 205 C32 197 36 188 41 180 C46 171 47 164 45 153 C38 130 21 102 4 84 C-15 117 -12 160 -12 197 C-14 271 -23 340 -78 394 C-79 395 -79 395 -80 396 C-82 398 -85 401 -88 404 C-101 417 -110 431 -112 450 C-112 452 -112 453 -113 455 C-114 463 -115 472 -110 479 C-105 486 -99 491 -92 496 C-93 499 -93 499 -95 501 C-96 501 -97 502 -98 502 C-99 503 -100 503 -101 504 C-102 504 -102 504 -105 505 C-106 506 -107 506 -108 507 C-114 509 -114 509 -116 510 C-118 509 -118 509 -119 507 C-119 506 -120 505 -120 503 C-120 502 -121 501 -121 500 C-121 499 -122 499 -122 498 C-122 496 -123 494 -123 492 C-130 470 -132 448 -121 427 C-111 411 -98 398 -85 385 C-82 382 -79 379 -76 375 C-75 374 -75 374 -74 373 C-56 352 -43 328 -43 299 C-43 298 -43 297 -43 296 C-43 285 -43 274 -44 262 C-44 260 -44 258 -44 256 C-44 253 -44 249 -44 246 C-44 246 -44 246 -44 243 C-44 243 -44 242 -44 241 C-44 240 -44 239 -44 238 C-44 236 -45 234 -45 232 C-64 261 -72 293 -79 327 C-79 327 -79 327 -79 329 C-80 331 -80 333 -80 335 C-83 347 -92 354 -102 360 C-106 362 -110 364 -114 366 C-136 377 -150 396 -159 417 C-164 435 -157 452 -150 468 C-147 476 -147 476 -146 479 C-148 482 -148 482 -149 484 C-154 483 -157 480 -160 477 C-161 478 -161 479 -161 479 C-162 480 -162 481 -163 482 C-163 482 -164 483 -164 484 C-166 487 -169 488 -171 490 C-176 461 -178 428 -165 400 C-165 399 -164 399 -164 398 C-155 380 -141 367 -126 356 C-125 355 -125 355 -124 354 C-121 352 -121 352 -118 351 C-114 348 -110 346 -108 341 C-107 337 -106 334 -105 330 C-105 328 -105 327 -105 326 C-104 323 -104 320 -103 317 C-102 310 -100 302 -99 295 C-99 294 -98 294 -98 293 C-93 266 -81 243 -63 223 C-52 211 -42 196 -42 180 C-42 179 -42 178 -42 177 C-42 169 -43 160 -44 151 C-44 149 -44 147 -45 145 C-45 141 -45 136 -46 131 C-47 124 -47 116 -48 109 C-48 106 -49 103 -49 101 C-49 99 -49 98 -50 96 C-50 95 -50 95 -50 94 C-50 91 -50 88 -50 84 C-68 90 -78 98 -88 114 C-89 116 -89 117 -90 118 C-91 120 -92 121 -93 123 C-95 127 -98 131 -100 134 C-101 135 -101 136 -102 137 C-103 139 -104 141 -105 143 C-114 157 -113 170 -110 186 C-106 209 -105 234 -118 253 C-123 260 -130 266 -138 267 C-140 267 -141 267 -143 267 C-144 267 -145 267 -145 267 C-146 267 -146 267 -147 267 C-147 263 -146 263 -143 260 C-129 242 -121 221 -122 198 C-123 190 -125 183 -127 175 C-130 178 -131 181 -132 184 C-133 186 -133 187 -134 188 C-135 191 -136 193 -137 195 C-143 210 -151 223 -165 230 C-170 231 -174 231 -178 231 C-176 228 -174 225 -171 222 C-155 204 -135 181 -132 156 C-149 168 -166 179 -181 192 C-183 193 -185 194 -187 194 C-189 192 -191 190 -192 188 C-191 184 -188 183 -185 181 C-184 180 -183 180 -183 180 C-180 178 -178 177 -175 175 C-167 170 -159 165 -151 158 C-151 158 -151 158 -149 156 C-136 145 -128 132 -119 117 C-106 93 -91 74 -67 59 C-65 57 -63 56 -61 54 C-62 54 -63 53 -64 53 C-83 43 -83 43 -85 35 C-86 30 -87 25 -84 19 C-80 15 -76 13 -71 11 C-70 11 -69 11 -68 11 C-46 3 -23 0 0 0 Z " transform="translate(228.2 35.7)" fill="#000"/></g></svg><svg x="1934.0" y="182.0" width="442.0" height="457.0" viewBox="0 0 442 457" overflow="visible"><filter id="f123" x="-15%" y="-15%" width="130%" height="130%"><feTurbulence type="fractalNoise" baseFrequency="0.0092" numOctaves="2" seed="5" result="n"><animate attributeName="seed" values="5;19;33;9;23;3;11;27" dur="1.143s" calcMode="discrete" repeatCount="indefinite"/></feTurbulence><feDisplacementMap in="SourceGraphic" in2="n" scale="8.77" xChannelSelector="R" yChannelSelector="G"/></filter><g filter="url(#f123)"><path d="M0 0 C1 0 1 0 2 0 C7 43 -9 79 -27 116 C-30 122 -32 127 -35 132 C-35 133 -35 133 -36 135 C-38 138 -39 142 -41 146 C-51 169 -67 185 -91 196 C-93 197 -96 198 -98 198 C-99 199 -100 199 -101 199 C-102 199 -103 200 -105 200 C-108 201 -110 201 -111 204 C-113 211 -114 217 -111 224 C-104 229 -95 229 -87 228 C-83 227 -79 226 -74 224 C-72 224 -70 223 -68 222 C-64 221 -60 220 -56 218 C-51 217 -46 215 -41 214 C-39 213 -37 212 -35 212 C-34 211 -32 211 -31 211 C-30 210 -29 210 -28 209 C-23 209 -20 210 -17 213 C4 231 19 257 32 281 C32 282 33 283 33 284 C58 329 58 329 58 347 C58 347 58 348 58 349 C58 351 58 351 56 353 C51 347 47 340 43 334 C39 327 35 321 31 314 C24 304 17 293 10 282 C8 279 6 276 4 273 C-4 260 -12 248 -20 235 C-29 236 -37 238 -45 240 C-46 240 -48 241 -49 241 C-53 242 -57 243 -61 244 C-68 246 -74 248 -81 249 C-83 250 -85 251 -87 251 C-89 252 -90 252 -92 252 C-92 253 -92 253 -95 253 C-98 254 -98 254 -100 254 C-100 255 -100 255 -99 257 C-95 266 -92 275 -88 284 C-88 285 -88 286 -87 287 C-87 288 -87 289 -86 290 C-86 291 -86 292 -86 293 C-85 295 -85 295 -86 298 C-89 300 -91 301 -94 302 C-94 303 -95 303 -96 303 C-98 305 -101 306 -103 307 C-106 308 -108 310 -111 311 C-112 312 -114 312 -115 313 C-118 315 -121 316 -124 318 C-125 318 -126 318 -127 318 C-132 305 -136 292 -141 279 C-143 279 -143 279 -151 282 C-168 287 -182 281 -197 273 C-199 272 -201 271 -203 270 C-204 270 -205 270 -206 269 C-212 266 -219 266 -226 268 C-236 271 -245 280 -253 288 C-254 289 -254 289 -256 291 C-260 294 -263 297 -266 301 C-267 302 -268 303 -268 304 C-293 332 -309 367 -326 400 C-326 400 -327 400 -327 400 C-327 383 -322 366 -315 350 C-315 350 -315 350 -314 348 C-304 324 -288 302 -272 282 C-271 281 -271 280 -270 279 C-257 263 -242 250 -221 247 C-210 246 -200 248 -190 250 C-187 251 -185 252 -182 252 C-181 252 -179 253 -178 253 C-168 255 -159 255 -150 251 C-147 249 -147 247 -146 244 C-145 232 -147 222 -150 211 C-156 212 -162 214 -168 216 C-181 219 -194 222 -207 224 C-208 224 -208 224 -209 224 C-217 225 -226 226 -234 227 C-238 218 -241 209 -243 200 C-243 199 -243 199 -244 198 C-249 176 -248 149 -243 127 C-243 126 -243 125 -242 124 C-238 107 -232 90 -225 74 C-225 73 -224 72 -224 71 C-224 70 -223 70 -223 69 C-223 68 -222 67 -222 67 C-221 65 -221 65 -219 64 C-214 80 -221 98 -224 114 C-237 167 -237 167 -225 189 C-221 196 -216 200 -208 203 C-192 205 -180 195 -168 186 C-168 186 -167 185 -167 185 C-165 184 -163 182 -162 181 C-149 173 -136 174 -121 174 C-118 174 -115 174 -112 174 C-109 174 -107 174 -105 174 C-95 174 -84 172 -76 165 C-63 151 -54 133 -46 116 C-45 114 -44 112 -43 110 C-32 88 -24 64 -16 41 C-11 27 -6 14 0 0 Z " transform="translate(356.0 29.0)" fill="#000"/><path d="M0 0 C7 9 8 19 7 30 C5 39 -3 46 -10 52 C-14 54 -17 55 -22 54 C-28 52 -32 49 -35 42 C-38 35 -38 25 -36 18 C-33 9 -25 4 -17 -0 C-11 -3 -5 -4 0 0 Z " transform="translate(275.2 360.5)" fill="#000"/></g></svg><svg x="2887.0" y="163.0" width="260.0" height="495.0" viewBox="0 0 260 495" overflow="visible"><filter id="f124" x="-15%" y="-15%" width="130%" height="130%"><feTurbulence type="fractalNoise" baseFrequency="0.0085" numOctaves="2" seed="19" result="n"><animate attributeName="seed" values="19;33;9;23;3;11;27;5" dur="1.143s" calcMode="discrete" repeatCount="indefinite"/></feTurbulence><feDisplacementMap in="SourceGraphic" in2="n" scale="9.50" xChannelSelector="R" yChannelSelector="G"/></filter><g filter="url(#f124)"><path d="M0 0 C5 4 7 9 7 16 C7 26 3 34 -3 41 C-3 42 -4 43 -4 44 C-5 45 -7 47 -8 48 C-10 51 -11 52 -11 56 C-10 60 -8 65 -6 69 C-5 72 -4 74 -3 76 C-1 81 1 86 3 91 C4 93 5 94 5 96 C9 105 13 113 17 122 C44 183 71 244 82 311 C82 311 82 312 83 313 C85 327 85 327 85 332 C71 315 64 292 58 272 C46 237 46 237 39 224 C38 223 38 222 38 222 C29 205 17 190 2 179 C2 185 2 192 3 198 C3 199 3 200 3 201 C3 204 3 207 4 210 C4 212 4 215 4 217 C5 222 5 226 6 231 C6 239 7 246 8 254 C9 264 10 275 11 285 C11 286 11 286 11 287 C11 289 11 290 11 291 C11 292 11 293 11 293 C12 294 12 295 12 295 C12 303 13 310 14 318 C14 318 14 318 14 320 C15 331 16 342 17 353 C18 360 18 368 19 375 C20 380 20 385 20 389 C21 391 21 393 21 396 C21 399 22 401 22 404 C22 405 22 406 22 407 C23 411 23 415 23 420 C0 397 -0 334 -5 303 C-5 299 -6 294 -7 289 C-7 287 -7 285 -8 284 C-8 280 -9 277 -9 274 C-9 273 -9 273 -10 272 C-10 269 -10 267 -11 265 C-15 262 -18 261 -23 261 C-23 261 -23 261 -25 261 C-26 261 -27 261 -27 261 C-37 297 -38 334 -36 371 C-35 389 -35 407 -35 426 C-36 426 -37 426 -37 426 C-43 409 -48 392 -50 374 C-51 373 -51 372 -51 371 C-54 352 -55 333 -55 314 C-55 313 -55 312 -55 311 C-55 296 -54 282 -53 268 C-52 253 -52 239 -52 225 C-52 223 -52 220 -52 218 C-52 187 -56 155 -75 129 C-76 128 -77 128 -77 128 C-77 128 -77 129 -77 130 C-78 142 -79 153 -81 164 C-81 166 -81 168 -82 170 C-82 175 -83 180 -83 185 C-84 190 -85 195 -85 200 C-87 210 -88 221 -89 231 C-90 230 -91 230 -91 230 C-92 227 -93 225 -93 223 C-93 222 -93 222 -94 221 C-94 219 -95 217 -95 215 C-95 214 -96 213 -96 213 C-99 201 -101 190 -102 179 C-102 178 -102 177 -103 176 C-104 168 -104 159 -104 150 C-104 149 -104 149 -104 148 C-104 131 -102 116 -99 100 C-96 77 -93 55 -106 35 C-109 31 -111 28 -114 26 C-105 10 -85 2 -68 -3 C-47 -9 -19 -14 0 0 Z " transform="translate(145.3 39.4)" fill="#000"/></g></svg><svg x="3708.5" y="131.5" width="341.0" height="558.0" viewBox="0 0 341 558" overflow="visible"><filter id="f125" x="-15%" y="-15%" width="130%" height="130%"><feTurbulence type="fractalNoise" baseFrequency="0.0075" numOctaves="2" seed="33" result="n"><animate attributeName="seed" values="33;9;23;3;11;27;5;19" dur="1.143s" calcMode="discrete" repeatCount="indefinite"/></feTurbulence><feDisplacementMap in="SourceGraphic" in2="n" scale="10.71" xChannelSelector="R" yChannelSelector="G"/></filter><g filter="url(#f125)"><path d="M0 0 C1 0 1 0 3 0 C4 0 5 0 6 0 C7 11 8 23 9 34 C10 34 10 34 11 34 C27 37 44 44 55 58 C64 71 66 88 67 104 C67 106 67 109 67 111 C68 115 68 119 68 122 C72 182 87 254 134 296 C148 308 164 317 179 327 C184 329 188 331 192 334 C194 335 197 337 199 338 C193 341 179 336 173 334 C157 328 143 320 130 309 C130 309 129 308 129 308 C123 303 117 297 112 291 C111 290 111 289 110 288 C103 279 97 270 91 260 C91 259 90 259 90 258 C66 216 54 167 50 119 C48 107 46 94 40 83 C40 82 40 81 39 81 C32 67 32 67 26 64 C26 65 27 65 27 66 C27 68 27 69 28 71 C28 72 28 73 28 74 C28 75 28 76 28 77 C28 78 28 79 28 80 C29 83 29 85 29 88 C29 91 30 95 30 99 C31 110 32 122 33 133 C34 139 34 145 35 151 C35 154 35 157 36 161 C38 188 42 215 49 242 C58 277 65 309 53 345 C42 378 45 406 59 438 C64 448 68 458 67 470 C67 471 67 472 67 474 C67 477 66 480 65 483 C42 461 29 426 28 394 C27 368 31 341 41 317 C43 308 42 299 41 290 C40 289 40 288 40 287 C35 259 27 233 17 207 C16 214 16 220 16 226 C16 228 16 229 16 230 C16 238 16 246 17 254 C18 275 15 292 4 310 C-8 330 -19 351 -19 374 C-19 375 -19 376 -19 377 C-19 392 -13 405 -8 419 C-1 434 5 450 9 466 C9 467 9 468 9 469 C11 476 12 482 12 489 C8 485 5 481 1 476 C1 476 0 475 -0 474 C-22 442 -44 396 -37 356 C-33 335 -24 316 -14 298 C-3 277 -3 257 -7 234 C-10 219 -11 205 -12 190 C-12 168 -19 150 -28 131 C-29 129 -30 127 -31 125 C-32 122 -33 120 -34 117 C-38 109 -42 101 -45 93 C-46 92 -46 91 -47 90 C-48 87 -49 85 -50 82 C-50 90 -49 96 -47 103 C-46 106 -46 109 -45 112 C-44 114 -44 116 -43 119 C-40 130 -39 141 -40 153 C-40 155 -40 157 -40 159 C-41 274 -41 274 -57 298 C-57 279 -57 260 -56 241 C-54 199 -54 158 -67 118 C-72 102 -76 85 -70 68 C-70 67 -69 66 -69 66 C-66 58 -59 52 -53 46 C-52 46 -52 46 -51 46 C-51 46 -51 46 -51 44 C-51 32 -48 20 -40 11 C-28 3 -14 -0 0 0 Z " transform="translate(107.9 34.9)" fill="#000"/></g></svg><svg x="4579.0" y="139.0" width="324.0" height="543.0" viewBox="0 0 324 543" overflow="visible"><filter id="f126" x="-15%" y="-15%" width="130%" height="130%"><feTurbulence type="fractalNoise" baseFrequency="0.0077" numOctaves="2" seed="9" result="n"><animate attributeName="seed" values="9;23;3;11;27;5;19;33" dur="1.143s" calcMode="discrete" repeatCount="indefinite"/></feTurbulence><feDisplacementMap in="SourceGraphic" in2="n" scale="10.43" xChannelSelector="R" yChannelSelector="G"/></filter><g filter="url(#f126)"><path d="M0 0 C-0 0 -0 0 -2 1 C-17 9 -31 17 -45 25 C-50 28 -55 31 -59 34 C-77 43 -100 58 -110 77 C-101 76 -91 75 -82 74 C-80 74 -78 74 -76 73 C-69 72 -63 72 -57 71 C-53 70 -49 70 -46 69 C-43 69 -41 69 -39 68 C-38 68 -36 68 -35 68 C-34 68 -33 67 -32 67 C-29 67 -29 67 -27 68 C-45 81 -68 86 -89 91 C-88 94 -86 97 -84 100 C-76 110 -76 110 -76 117 C-77 121 -78 126 -79 130 C-83 141 -83 154 -78 164 C-78 165 -77 165 -77 166 C-77 167 -76 168 -76 168 C-72 173 -68 178 -65 182 C-59 188 -55 195 -51 202 C-50 203 -50 204 -49 205 C-28 245 -25 303 -30 347 C-30 347 -31 347 -31 347 C-31 346 -31 345 -31 344 C-33 336 -34 328 -35 320 C-36 316 -37 311 -37 307 C-43 275 -43 275 -46 260 C-46 259 -46 258 -46 257 C-50 237 -58 217 -72 202 C-72 202 -72 202 -74 200 C-77 195 -81 192 -86 189 C-86 190 -87 190 -87 191 C-88 195 -90 199 -92 202 C-93 206 -94 209 -94 213 C-94 214 -94 214 -94 215 C-94 221 -91 225 -87 229 C-76 241 -71 253 -71 269 C-72 293 -80 317 -87 340 C-89 344 -90 347 -91 351 C-95 364 -98 376 -102 388 C-103 391 -104 395 -105 398 C-106 401 -107 403 -107 405 C-108 406 -108 408 -108 409 C-109 410 -109 411 -109 412 C-110 415 -110 417 -109 420 C-107 422 -107 422 -105 425 C-95 436 -86 446 -86 462 C-86 466 -88 469 -90 473 C-91 473 -92 473 -93 473 C-95 471 -95 471 -96 468 C-97 467 -98 466 -98 465 C-99 464 -99 464 -100 462 C-102 459 -103 457 -105 455 C-105 454 -105 454 -106 453 C-108 449 -110 446 -113 443 C-113 442 -114 441 -114 440 C-115 439 -117 437 -118 436 C-118 436 -118 436 -119 434 C-119 433 -120 433 -120 432 C-122 426 -119 418 -118 411 C-118 411 -118 411 -117 408 C-116 406 -116 404 -115 402 C-115 398 -114 394 -113 391 C-111 385 -110 378 -109 372 C-106 362 -104 352 -102 342 C-101 339 -100 335 -99 332 C-97 322 -95 312 -93 302 C-93 301 -92 300 -92 300 C-91 291 -90 283 -90 275 C-90 273 -90 272 -90 271 C-90 264 -91 258 -91 251 C-104 251 -117 251 -130 251 C-131 254 -131 258 -132 261 C-133 264 -133 266 -134 269 C-134 269 -135 270 -135 271 C-135 273 -136 275 -137 278 C-137 279 -138 281 -138 283 C-139 286 -141 290 -142 293 C-143 299 -145 305 -147 310 C-149 317 -151 324 -153 331 C-158 348 -163 365 -168 382 C-169 386 -170 390 -172 394 C-172 397 -173 400 -174 403 C-175 404 -175 406 -175 407 C-179 420 -179 420 -181 426 C-181 426 -182 426 -182 426 C-182 416 -182 407 -180 397 C-180 396 -180 395 -180 395 C-176 362 -169 329 -162 296 C-162 294 -161 291 -161 289 C-160 284 -159 280 -158 276 C-158 275 -158 273 -157 272 C-154 254 -148 237 -135 224 C-133 220 -132 217 -133 213 C-134 204 -139 194 -144 186 C-157 203 -167 222 -176 241 C-176 242 -177 243 -177 244 C-187 262 -195 281 -203 301 C-236 380 -236 380 -255 408 C-256 405 -256 404 -255 401 C-254 400 -254 399 -253 398 C-253 397 -253 396 -252 395 C-252 394 -252 394 -251 393 C-250 389 -248 386 -247 383 C-246 381 -245 378 -244 376 C-242 372 -241 367 -239 363 C-235 354 -232 345 -228 337 C-227 333 -225 330 -224 326 C-223 325 -223 323 -222 321 C-218 311 -214 301 -210 291 C-209 289 -208 288 -208 286 C-207 285 -207 285 -207 284 C-204 278 -202 272 -200 266 C-198 262 -197 259 -195 255 C-194 253 -194 252 -193 250 C-193 249 -192 249 -192 248 C-190 242 -188 236 -185 231 C-183 226 -182 222 -180 217 C-179 215 -178 213 -177 211 C-172 197 -166 184 -157 172 C-154 167 -151 163 -149 158 C-148 158 -148 157 -148 156 C-142 146 -142 137 -144 126 C-145 118 -146 110 -141 103 C-139 102 -138 100 -136 99 C-134 95 -134 93 -134 89 C-138 73 -148 55 -159 43 C-160 42 -160 42 -161 41 C-165 37 -169 33 -174 30 C-175 30 -175 29 -176 29 C-176 28 -176 28 -176 27 C-164 26 -154 30 -145 38 C-137 46 -130 55 -125 65 C-125 66 -125 66 -125 67 C-122 65 -119 63 -116 60 C-112 55 -106 51 -101 47 C-100 46 -99 45 -98 45 C-73 25 -46 10 -16 2 C-15 2 -15 2 -12 1 C-4 -1 -4 -1 0 0 Z " transform="translate(291.0 35.0)" fill="#000"/><path d="M0 0 C4 4 7 7 10 12 C11 12 11 13 12 13 C15 18 15 18 15 21 C11 23 7 24 3 26 C2 27 1 27 -1 28 C-5 30 -10 32 -14 34 C-14 34 -14 34 -16 35 C-18 36 -20 37 -22 37 C-23 38 -24 38 -25 39 C-28 40 -28 40 -31 40 C-30 37 -28 35 -26 33 C-26 32 -25 31 -25 31 C-24 30 -24 29 -23 29 C-22 27 -21 26 -20 24 C-19 24 -18 23 -18 22 C-15 19 -12 15 -9 11 C-8 11 -8 10 -7 9 C-5 6 -2 3 0 0 Z " transform="translate(107.0 469.0)" fill="#000"/></g></svg><svg x="181.0" y="928.5" width="500.0" height="606.0" viewBox="0 0 500 606" overflow="visible"><filter id="f127" x="-15%" y="-15%" width="130%" height="130%"><feTurbulence type="fractalNoise" baseFrequency="0.0069" numOctaves="2" seed="23" result="n"><animate attributeName="seed" values="23;3;11;27;5;19;33;9" dur="1.143s" calcMode="discrete" repeatCount="indefinite"/></feTurbulence><feDisplacementMap in="SourceGraphic" in2="n" scale="11.64" xChannelSelector="R" yChannelSelector="G"/></filter><g filter="url(#f127)"><path d="M0 0 C1 0 2 1 3 1 C17 8 17 8 19 13 C21 22 15 28 10 35 C2 47 -2 57 -1 71 C1 78 4 84 8 90 C13 97 17 104 20 113 C20 114 20 115 20 116 C23 123 25 131 26 139 C33 165 42 190 51 216 C61 241 69 266 72 293 C69 291 68 288 67 285 C67 285 67 284 66 283 C66 282 65 280 64 279 C63 275 61 272 60 269 C59 267 58 265 58 264 C54 255 50 247 46 238 C38 220 30 202 22 184 C19 177 16 171 13 164 C12 162 11 160 10 157 C10 157 10 157 9 155 C9 154 9 153 8 153 C4 184 3 216 9 248 C10 256 10 263 11 271 C11 273 11 275 11 278 C11 279 11 280 11 281 C12 310 13 339 15 368 C15 369 15 370 15 371 C16 384 17 398 18 411 C19 429 20 446 21 464 C21 471 22 477 22 483 C23 487 23 491 23 495 C23 496 23 498 23 500 C24 509 24 519 24 528 C24 528 24 528 23 528 C12 448 1 369 -10 287 C-15 307 -15 307 -18 317 C-18 318 -18 319 -19 320 C-19 323 -20 327 -21 330 C-22 333 -22 335 -23 337 C-24 343 -26 348 -27 353 C-29 361 -31 369 -33 377 C-33 377 -33 377 -34 379 C-34 382 -35 385 -36 387 C-37 391 -38 395 -39 399 C-44 422 -50 444 -56 467 C-56 468 -56 470 -57 471 C-59 479 -61 487 -63 495 C-64 492 -65 490 -65 487 C-65 486 -65 485 -65 484 C-65 483 -65 482 -65 481 C-65 481 -64 480 -64 479 C-64 461 -60 444 -55 427 C-42 377 -37 327 -34 275 C-33 273 -33 270 -33 267 C-33 265 -33 263 -33 261 C-32 250 -31 240 -28 229 C-27 228 -27 226 -27 225 C-26 223 -26 221 -25 219 C-20 199 -21 183 -25 164 C-25 161 -25 159 -26 156 C-26 154 -27 151 -27 149 C-27 148 -27 147 -27 146 C-28 145 -28 144 -28 143 C-28 142 -28 141 -28 140 C-29 138 -29 138 -30 136 C-44 167 -51 200 -57 234 C-69 293 -69 293 -79 306 C-76 287 -73 268 -70 249 C-69 244 -68 240 -67 235 C-66 226 -64 217 -63 209 C-61 199 -59 189 -57 179 C-55 167 -53 155 -51 142 C-51 141 -51 141 -50 140 C-50 136 -49 131 -48 127 C-47 120 -46 113 -45 106 C-44 102 -43 99 -43 96 C-43 95 -42 93 -42 92 C-41 82 -38 73 -34 63 C-33 60 -32 58 -33 54 C-34 52 -34 52 -36 50 C-36 49 -37 48 -38 47 C-38 46 -39 46 -40 45 C-42 42 -44 39 -47 36 C-48 35 -49 33 -51 32 C-54 28 -56 25 -55 20 C-54 13 -50 5 -44 1 C-29 -6 -15 -8 0 0 Z " transform="translate(263.8 42.2)" fill="#000"/><path d="M0 0 C4 2 7 6 9 10 C11 18 11 18 10 23 C7 27 3 31 -1 34 C-2 36 -2 36 -4 38 C-5 40 -5 40 -9 41 C-13 41 -17 40 -21 38 C-24 35 -24 32 -24 28 C-24 21 -23 16 -19 11 C-16 8 -13 6 -10 4 C-9 4 -8 3 -8 3 C-3 -0 -3 -0 0 0 Z " transform="translate(138.1 40.2)" fill="#000"/><path d="M0 0 C1 1 1 1 1 4 C1 11 -2 18 -6 23 C-8 25 -10 26 -14 26 C-19 26 -24 24 -29 21 C-32 16 -31 11 -30 6 C-25 -8 -12 -4 0 0 Z " transform="translate(385.0 47.0)" fill="#000"/><path d="M0 0 C11 7 19 17 22 30 C24 44 22 56 14 68 C7 76 -3 84 -14 86 C-25 87 -34 85 -43 78 C-51 72 -58 63 -59 53 C-59 52 -59 52 -59 51 C-60 39 -55 29 -48 20 C-47 19 -47 18 -46 17 C-36 5 -16 -9 0 0 Z M-36 32 C-39 37 -40 40 -39 45 C-37 52 -31 58 -24 62 C-20 63 -18 63 -14 60 C-8 56 -3 51 -1 44 C-0 38 -1 32 -4 27 C-7 23 -11 20 -16 19 C-24 20 -31 26 -36 32 Z " transform="translate(441.1 237.4)" fill="#000"/><path d="M0 0 C6 5 8 10 9 17 C11 31 5 44 -3 55 C-12 64 -24 69 -36 70 C-45 70 -53 68 -61 66 C-62 66 -63 66 -64 66 C-70 64 -73 62 -76 56 C-82 44 -83 31 -79 18 C-73 6 -62 -0 -50 -5 C-34 -10 -15 -10 0 0 Z M-50 22 C-52 25 -54 27 -55 29 C-56 29 -57 28 -59 27 C-60 27 -61 26 -63 25 C-63 24 -64 24 -65 24 C-70 20 -70 20 -72 20 C-73 28 -73 33 -68 39 C-62 46 -53 48 -44 49 C-35 49 -27 44 -20 37 C-17 33 -14 29 -14 23 C-16 18 -18 15 -22 12 C-32 7 -44 16 -50 22 Z " transform="translate(118.4 268.6)" fill="#000"/><path d="M0 0 C4 6 4 12 4 19 C2 23 1 24 -2 25 C-7 28 -13 30 -18 29 C-24 26 -26 21 -27 15 C-28 9 -28 5 -24 0 C-17 -3 -7 -5 0 0 Z " transform="translate(125.5 510.7)" fill="#000"/><path d="M0 0 C8 3 8 3 11 6 C11 15 6 23 0 29 C-8 34 -16 35 -25 34 C-28 32 -30 31 -32 28 C-33 21 -29 16 -25 10 C-18 2 -11 -4 0 0 Z " transform="translate(424.2 510.0)" fill="#000"/></g></svg><svg x="1040.5" y="937.5" width="505.0" height="588.0" viewBox="0 0 505 588" overflow="visible"><filter id="f128" x="-15%" y="-15%" width="130%" height="130%"><feTurbulence type="fractalNoise" baseFrequency="0.0071" numOctaves="2" seed="3" result="n"><animate attributeName="seed" values="3;11;27;5;19;33;9;23" dur="1.143s" calcMode="discrete" repeatCount="indefinite"/></feTurbulence><feDisplacementMap in="SourceGraphic" in2="n" scale="11.29" xChannelSelector="R" yChannelSelector="G"/></filter><g filter="url(#f128)"><path d="M0 0 C9 1 15 3 21 10 C27 17 30 24 31 33 C36 58 48 79 63 100 C78 121 92 141 105 163 C105 164 106 165 106 166 C152 246 172 345 197 479 C195 476 194 473 193 469 C192 468 192 468 192 467 C191 465 191 462 190 460 C189 458 189 456 188 454 C187 450 186 445 184 440 C183 435 181 430 180 425 C177 416 174 407 172 397 C169 388 166 378 163 369 C162 366 161 363 161 361 C158 353 156 345 154 337 C153 333 152 330 151 326 C150 325 150 323 149 321 C146 311 143 301 140 290 C138 284 136 277 134 271 C133 267 132 263 131 259 C125 238 118 217 109 197 C108 196 108 195 107 194 C93 164 74 136 51 112 C49 110 47 108 46 105 C40 99 34 93 28 87 C15 132 16 176 34 219 C35 223 37 228 39 232 C39 233 40 234 40 235 C67 305 85 395 66 508 C65 509 64 510 64 510 C64 510 64 509 64 508 C63 492 63 475 62 459 C62 450 61 442 61 434 C61 427 61 420 60 413 C60 410 60 406 60 402 C59 388 59 373 58 359 C58 358 58 357 58 356 C54 304 34 257 5 214 C2 218 -1 222 -4 226 C-4 227 -5 227 -5 228 C-24 257 -42 287 -58 318 C-59 319 -59 320 -60 321 C-69 338 -77 356 -85 373 C-85 374 -86 374 -86 375 C-98 402 -108 430 -115 458 C-128 507 -128 507 -136 517 C-131 466 -117 416 -96 368 C-96 368 -96 368 -95 365 C-91 357 -88 349 -84 341 C-84 341 -84 341 -83 338 C-76 322 -68 307 -61 292 C-60 291 -60 291 -60 290 C-56 283 -53 276 -49 270 C-43 257 -37 245 -31 232 C-30 231 -30 230 -30 229 C-17 201 -14 171 -25 142 C-26 139 -28 136 -29 133 C-29 133 -29 132 -29 131 C-30 131 -31 131 -31 131 C-31 132 -32 133 -32 133 C-33 136 -35 139 -36 142 C-37 142 -37 142 -38 145 C-39 146 -40 147 -40 148 C-41 149 -42 150 -42 151 C-44 154 -45 156 -47 159 C-50 164 -54 170 -57 176 C-63 184 -68 193 -73 201 C-80 213 -87 224 -94 235 C-102 248 -110 261 -118 274 C-123 281 -127 288 -131 295 C-136 303 -141 311 -146 319 C-147 320 -148 322 -149 324 C-151 327 -152 329 -154 332 C-183 379 -210 427 -234 476 C-235 476 -235 476 -235 476 C-235 470 -234 463 -232 457 C-231 456 -231 455 -231 454 C-226 440 -220 426 -213 412 C-212 410 -211 408 -210 406 C-203 393 -196 380 -188 367 C-186 365 -185 362 -183 359 C-176 346 -168 334 -160 322 C-156 315 -152 309 -148 302 C-145 297 -142 291 -138 286 C-129 271 -120 255 -110 240 C-108 236 -106 232 -104 228 C-92 208 -81 188 -70 167 C-68 164 -67 161 -65 158 C-60 149 -56 140 -51 131 C-51 130 -50 129 -50 127 C-48 124 -47 121 -45 117 C-45 116 -44 115 -44 114 C-41 107 -39 100 -37 92 C-37 90 -37 88 -36 87 C-36 83 -35 80 -34 76 C-22 11 -22 11 -8 1 C-5 0 -3 0 0 0 Z " transform="translate(272.2 35.8)" fill="#000"/></g></svg><svg x="1898.0" y="915.0" width="514.0" height="633.0" viewBox="0 0 514 633" overflow="visible"><filter id="f129" x="-15%" y="-15%" width="130%" height="130%"><feTurbulence type="fractalNoise" baseFrequency="0.0066" numOctaves="2" seed="11" result="n"><animate attributeName="seed" values="11;27;5;19;33;9;23;3" dur="1.143s" calcMode="discrete" repeatCount="indefinite"/></feTurbulence><feDisplacementMap in="SourceGraphic" in2="n" scale="12.15" xChannelSelector="R" yChannelSelector="G"/></filter><g filter="url(#f129)"><path d="M0 0 C6 5 7 10 8 17 C10 27 10 27 13 32 C13 33 13 33 13 34 C16 35 18 36 21 37 C32 40 39 45 45 55 C49 65 52 75 54 86 C60 108 66 131 86 145 C89 146 92 147 94 149 C95 149 96 150 97 150 C100 152 103 153 106 155 C107 155 108 156 109 156 C137 171 182 191 215 181 C235 174 249 158 264 143 C264 143 265 142 266 141 C266 141 266 141 268 139 C273 134 273 134 276 134 C278 138 278 142 277 146 C274 151 270 155 267 159 C264 162 262 165 260 168 C259 169 258 170 258 171 C257 172 257 172 256 173 C269 171 280 164 291 158 C292 157 293 157 294 156 C295 155 297 155 298 154 C300 153 301 152 303 151 C304 151 304 152 305 152 C305 152 304 153 304 153 C304 154 304 154 302 155 C302 156 301 157 301 157 C299 159 298 160 297 162 C294 166 291 169 287 173 C279 181 279 181 279 186 C279 191 281 195 282 199 C283 203 284 207 286 211 C286 213 287 215 287 217 C287 218 287 218 288 220 C288 221 288 222 289 223 C289 225 289 225 288 228 C277 215 277 215 271 208 C267 202 261 197 256 191 C255 190 255 189 254 189 C252 187 252 187 249 186 C251 196 254 206 257 217 C258 219 258 221 259 223 C260 225 260 227 261 229 C263 234 263 238 263 243 C262 243 261 243 260 243 C258 241 258 241 257 238 C256 238 256 238 255 235 C254 234 253 233 252 231 C251 230 250 228 249 226 C248 225 248 224 247 223 C244 218 240 213 237 208 C235 205 234 203 233 200 C231 197 230 198 226 197 C224 197 222 197 220 197 C218 197 216 197 214 197 C213 197 213 197 210 197 C163 195 91 176 57 140 C49 129 45 117 40 104 C40 103 40 103 39 100 C38 97 36 93 35 89 C34 87 33 84 33 82 C30 75 28 69 26 63 C23 79 25 97 28 113 C28 116 28 118 29 121 C29 125 30 129 32 133 C36 136 41 137 46 138 C54 141 60 147 64 154 C72 170 71 191 72 209 C72 213 72 218 72 222 C73 235 74 247 74 260 C75 267 75 274 76 281 C76 286 76 290 76 295 C77 298 77 301 77 305 C77 306 77 307 77 308 C78 317 79 325 85 332 C89 337 89 342 89 348 C89 349 89 350 89 352 C89 354 89 356 89 358 C89 364 89 370 90 376 C90 377 90 378 90 379 C91 423 98 485 131 518 C133 518 135 518 137 518 C138 518 138 518 141 519 C141 519 141 519 143 519 C145 519 147 519 149 519 C155 519 162 520 168 520 C235 524 235 524 253 543 C259 550 259 550 259 553 C255 552 250 550 246 548 C217 536 179 527 149 539 C148 540 146 540 145 541 C144 542 142 542 141 543 C72 477 72 370 65 281 C65 279 64 278 64 277 C63 266 62 254 61 242 C61 238 61 234 60 229 C60 227 60 225 60 223 C59 213 58 204 57 194 C56 193 56 193 56 192 C54 179 49 162 39 152 C39 153 38 153 38 154 C36 156 35 159 33 162 C33 163 32 164 32 165 C29 169 27 173 22 176 C18 175 15 173 12 170 C12 170 12 170 10 168 C9 168 8 167 7 166 C5 164 3 163 1 161 C0 160 -1 160 -2 159 C-4 157 -4 157 -6 156 C-6 156 -6 156 -6 158 C-7 166 -8 175 -10 183 C-12 197 -12 210 -12 224 C-12 225 -12 226 -12 226 C-12 242 -11 257 -10 272 C-7 303 -6 334 -11 365 C-11 366 -11 367 -12 368 C-15 386 -20 403 -25 420 C-27 425 -28 430 -30 435 C-32 441 -34 447 -35 453 C-36 456 -37 458 -38 461 C-51 504 -51 504 -62 510 C-66 512 -71 513 -75 515 C-95 521 -112 531 -128 545 C-129 546 -129 546 -131 546 C-129 539 -127 534 -122 529 C-122 528 -121 528 -121 527 C-111 517 -97 510 -85 504 C-77 500 -71 496 -64 491 C-64 491 -64 491 -61 489 C-58 486 -56 482 -54 478 C-53 478 -53 477 -53 476 C-44 461 -40 443 -36 426 C-35 422 -34 419 -33 415 C-21 369 -21 325 -24 278 C-26 251 -26 225 -26 199 C-26 195 -26 190 -26 186 C-26 182 -26 178 -26 175 C-26 173 -26 172 -26 170 C-26 157 -25 145 -21 132 C-19 125 -18 117 -22 110 C-24 106 -26 104 -29 101 C-30 100 -30 100 -31 99 C-31 100 -31 101 -31 101 C-32 150 -45 191 -63 236 C-64 237 -64 238 -65 239 C-65 241 -66 242 -67 244 C-68 247 -69 249 -70 252 C-70 253 -71 254 -71 255 C-73 260 -75 264 -74 270 C-74 270 -74 270 -74 274 C-74 275 -74 277 -74 278 C-74 279 -74 280 -74 281 C-73 287 -73 294 -72 301 C-72 304 -72 307 -72 309 C-72 311 -72 313 -71 315 C-71 319 -71 324 -71 328 C-73 328 -73 328 -75 326 C-75 326 -75 326 -76 324 C-77 324 -78 323 -78 322 C-80 320 -81 319 -82 317 C-84 315 -84 315 -86 314 C-86 314 -86 314 -86 316 C-87 320 -89 324 -91 328 C-91 329 -91 329 -92 331 C-93 334 -94 337 -95 339 C-96 341 -97 343 -97 345 C-99 350 -101 354 -103 359 C-103 359 -104 359 -104 359 C-104 343 -104 328 -102 312 C-105 314 -108 316 -111 319 C-111 319 -111 319 -113 321 C-117 324 -121 327 -125 330 C-126 330 -126 329 -127 329 C-120 315 -113 302 -106 288 C-107 288 -107 288 -108 289 C-110 290 -112 290 -115 291 C-115 292 -116 292 -117 292 C-121 294 -126 296 -130 297 C-130 289 -124 281 -118 275 C-115 273 -113 271 -110 269 C-108 268 -107 266 -105 265 C-105 265 -104 264 -103 264 C-70 239 -58 192 -52 152 C-49 131 -49 108 -57 87 C-59 79 -61 73 -57 65 C-54 60 -51 56 -47 52 C-39 43 -38 34 -38 22 C-37 14 -36 8 -31 3 C-21 -3 -10 -6 0 0 Z " transform="translate(170.0 42.0)" fill="#000"/></g></svg><svg x="2843.0" y="965.5" width="348.0" height="532.0" viewBox="0 0 348 532" overflow="visible"><filter id="f130" x="-15%" y="-15%" width="130%" height="130%"><feTurbulence type="fractalNoise" baseFrequency="0.0079" numOctaves="2" seed="27" result="n"><animate attributeName="seed" values="27;5;19;33;9;23;3;11" dur="1.143s" calcMode="discrete" repeatCount="indefinite"/></feTurbulence><feDisplacementMap in="SourceGraphic" in2="n" scale="10.21" xChannelSelector="R" yChannelSelector="G"/></filter><g filter="url(#f130)"><path d="M0 0 C15 11 24 24 28 43 C28 48 29 53 26 58 C24 60 22 62 20 64 C15 69 15 69 14 73 C22 89 37 96 52 104 C68 111 75 122 82 138 C82 138 82 138 82 140 C92 164 101 189 107 215 C107 216 107 217 108 218 C111 232 111 246 111 260 C111 261 111 262 111 263 C111 265 111 268 111 270 C111 271 111 271 111 273 C111 276 111 278 109 281 C108 279 108 277 107 274 C107 274 107 274 106 272 C105 268 104 264 102 260 C102 258 101 256 101 255 C101 254 101 254 100 252 C98 246 97 241 95 235 C84 201 84 201 79 184 C79 182 78 180 77 177 C76 173 75 169 74 165 C71 156 68 148 62 140 C61 139 60 138 60 137 C59 136 58 136 58 135 C57 134 56 133 56 132 C52 129 48 126 44 123 C44 123 44 123 44 125 C43 129 43 132 42 136 C42 137 42 138 42 139 C39 156 34 167 23 179 C15 191 15 202 16 216 C16 233 13 248 6 263 C5 264 5 265 5 266 C-5 287 -17 305 -30 324 C-57 363 -78 405 -87 453 C-87 455 -88 456 -88 458 C-89 458 -89 459 -90 459 C-100 414 -81 374 -58 337 C-55 333 -53 329 -50 325 C-23 282 0 239 -7 187 C-18 188 -28 190 -38 194 C-38 195 -38 195 -38 197 C-34 225 -40 246 -57 269 C-58 270 -59 272 -60 273 C-63 277 -65 280 -67 283 C-71 288 -74 292 -78 297 C-85 307 -92 317 -100 327 C-106 336 -112 344 -118 353 C-125 362 -131 370 -137 379 C-139 381 -140 383 -142 385 C-143 386 -143 387 -144 388 C-145 389 -146 390 -146 391 C-148 393 -148 393 -150 394 C-145 357 -116 323 -95 293 C-53 234 -53 234 -56 206 C-58 197 -61 191 -68 185 C-69 184 -70 183 -71 183 C-73 181 -73 181 -75 181 C-93 188 -109 210 -120 225 C-121 226 -122 228 -123 229 C-133 242 -142 255 -151 269 C-166 290 -166 290 -171 296 C-171 296 -172 296 -172 296 C-170 260 -145 230 -123 204 C-119 200 -115 195 -111 190 C-110 189 -109 188 -108 186 C-100 176 -92 165 -85 153 C-85 153 -85 153 -84 151 C-79 142 -77 133 -77 123 C-77 121 -77 120 -77 118 C-77 116 -77 114 -77 112 C-77 102 -76 94 -72 86 C-71 85 -71 84 -70 83 C-67 76 -62 71 -57 66 C-55 63 -55 63 -55 60 C-56 56 -58 53 -60 49 C-70 30 -70 30 -67 20 C-61 8 -52 -1 -39 -6 C-26 -11 -12 -7 0 0 Z " transform="translate(205.0 41.0)" fill="#000"/></g></svg><svg x="3758.0" y="930.5" width="242.0" height="602.0" viewBox="0 0 242 602" overflow="visible"><filter id="f131" x="-15%" y="-15%" width="130%" height="130%"><feTurbulence type="fractalNoise" baseFrequency="0.0070" numOctaves="2" seed="5" result="n"><animate attributeName="seed" values="5;19;33;9;23;3;11;27" dur="1.143s" calcMode="discrete" repeatCount="indefinite"/></feTurbulence><feDisplacementMap in="SourceGraphic" in2="n" scale="11.56" xChannelSelector="R" yChannelSelector="G"/></filter><g filter="url(#f131)"><path d="M0 0 C8 8 11 21 12 31 C11 41 5 47 -2 53 C-2 54 -3 54 -3 55 C-10 61 -10 61 -13 64 C-13 64 -14 64 -15 64 C-15 65 -14 65 -14 66 C-9 85 -6 104 -3 124 C-3 125 -2 126 -2 127 C-1 138 -1 148 -1 159 C-1 160 -1 161 -1 161 C-1 182 -2 204 -3 225 C-3 229 -3 233 -3 237 C-3 243 -4 248 -4 253 C-4 254 -4 255 -4 256 C-4 268 -5 279 -6 291 C-6 291 -6 291 -7 291 C-7 291 -7 291 -7 288 C-7 287 -7 286 -7 286 C-7 284 -8 282 -8 281 C-8 276 -9 271 -9 266 C-10 257 -11 248 -12 238 C-15 204 -19 169 -23 135 C-33 167 -33 167 -36 179 C-36 180 -36 182 -36 183 C-41 205 -44 226 -44 248 C-44 249 -44 250 -44 251 C-45 263 -45 275 -45 287 C-45 287 -45 287 -45 289 C-45 297 -45 304 -45 311 C-44 353 -49 393 -63 433 C-63 433 -63 433 -64 433 C-64 411 -63 390 -63 368 C-63 360 -62 353 -62 345 C-62 342 -62 340 -62 337 C-61 304 -61 304 -66 295 C-73 297 -78 301 -82 307 C-85 314 -88 320 -89 327 C-89 328 -89 328 -90 330 C-93 342 -94 353 -96 365 C-99 389 -104 411 -111 434 C-111 436 -112 438 -113 440 C-115 449 -118 458 -121 467 C-122 470 -123 473 -124 476 C-125 479 -126 482 -127 485 C-128 487 -128 488 -128 490 C-131 498 -134 507 -137 515 C-137 515 -137 515 -138 515 C-138 502 -138 490 -136 477 C-135 476 -135 474 -135 473 C-133 461 -130 449 -128 437 C-112 360 -100 282 -96 204 C-96 202 -96 200 -96 198 C-93 162 -93 124 -97 88 C-106 94 -110 107 -113 117 C-113 118 -113 119 -114 120 C-116 129 -118 139 -120 148 C-121 151 -121 154 -122 157 C-123 162 -124 166 -125 170 C-141 249 -141 249 -156 266 C-156 266 -157 267 -158 267 C-157 258 -156 249 -155 240 C-155 238 -154 237 -154 236 C-154 232 -153 228 -153 225 C-152 221 -152 218 -151 215 C-150 208 -149 201 -148 193 C-147 186 -146 178 -145 171 C-144 164 -143 158 -142 151 C-141 147 -141 143 -140 140 C-140 136 -139 132 -138 129 C-138 127 -138 125 -138 123 C-135 104 -129 88 -118 73 C-118 72 -117 71 -117 71 C-114 67 -111 63 -108 60 C-95 46 -94 34 -94 16 C-95 14 -95 13 -95 11 C-95 -1 -95 -1 -92 -5 C-66 -19 -25 -18 0 0 Z " transform="translate(194.8 50.9)" fill="#000"/></g></svg><svg x="4616.0" y="921.0" width="250.0" height="621.0" viewBox="0 0 250 621" overflow="visible"><filter id="f132" x="-15%" y="-15%" width="130%" height="130%"><feTurbulence type="fractalNoise" baseFrequency="0.0068" numOctaves="2" seed="19" result="n"><animate attributeName="seed" values="19;33;9;23;3;11;27;5" dur="1.143s" calcMode="discrete" repeatCount="indefinite"/></feTurbulence><feDisplacementMap in="SourceGraphic" in2="n" scale="11.92" xChannelSelector="R" yChannelSelector="G"/></filter><g filter="url(#f132)"><path d="M0 0 C14 7 31 20 36 35 C37 47 32 56 25 65 C20 74 14 83 13 93 C14 93 15 94 16 94 C33 101 48 112 56 130 C60 140 63 151 64 162 C64 163 64 164 64 164 C66 180 66 195 67 211 C67 242 69 272 71 303 C72 311 72 319 72 327 C57 304 58 266 56 239 C56 238 56 237 56 235 C55 230 55 224 55 218 C54 207 53 196 52 185 C51 184 51 183 51 182 C49 162 43 135 27 121 C21 117 17 117 10 117 C7 122 6 125 5 131 C5 132 5 133 4 134 C3 145 2 155 1 166 C0 170 -0 174 -1 178 C-1 181 -2 185 -2 189 C-2 191 -2 192 -3 194 C-4 205 -4 205 -1 210 C1 212 3 214 5 216 C10 223 14 231 16 239 C16 240 16 240 17 241 C17 245 17 249 17 253 C17 253 17 253 17 256 C17 264 17 271 16 279 C13 347 14 414 26 481 C27 487 28 492 28 498 C28 498 28 498 28 500 C28 502 28 504 28 506 C28 507 28 508 28 509 C28 536 28 536 24 542 C14 514 9 487 8 458 C8 457 8 455 8 454 C8 445 8 437 8 428 C8 389 5 350 2 311 C2 303 1 295 1 287 C-1 270 -2 253 -3 236 C-4 236 -4 236 -5 236 C-6 238 -6 238 -8 240 C-8 240 -9 241 -9 242 C-11 243 -12 245 -13 247 C-17 253 -20 255 -28 257 C-30 257 -33 257 -35 257 C-35 258 -35 258 -35 259 C-35 265 -35 271 -36 277 C-36 278 -36 279 -36 280 C-36 283 -37 286 -37 290 C-37 292 -37 294 -38 296 C-38 302 -39 308 -39 314 C-40 318 -40 322 -40 325 C-44 360 -47 395 -52 430 C-52 434 -53 437 -53 441 C-53 444 -54 448 -54 451 C-55 452 -55 454 -55 455 C-57 468 -60 480 -66 491 C-67 492 -67 492 -67 493 C-71 500 -76 507 -81 513 C-81 514 -82 514 -82 515 C-84 517 -85 519 -87 521 C-87 521 -87 521 -88 523 C-92 527 -92 527 -94 528 C-92 508 -82 489 -74 471 C-68 456 -63 443 -60 427 C-60 427 -60 426 -59 425 C-56 405 -55 385 -54 365 C-54 360 -54 355 -54 350 C-54 349 -54 347 -54 346 C-53 336 -52 326 -52 316 C-50 300 -50 283 -54 266 C-54 263 -54 259 -54 255 C-54 254 -54 254 -54 253 C-54 251 -54 250 -54 248 C-54 246 -54 244 -54 241 C-54 240 -54 238 -54 237 C-54 236 -54 235 -54 235 C-54 230 -54 226 -53 222 C-53 213 -53 203 -53 194 C-53 192 -53 190 -53 188 C-53 183 -53 178 -53 172 C-53 167 -53 162 -53 156 C-53 146 -53 135 -53 125 C-54 126 -56 127 -57 128 C-58 129 -59 130 -60 130 C-78 145 -87 169 -90 191 C-90 196 -90 201 -91 206 C-91 207 -91 208 -91 210 C-91 213 -91 216 -91 219 C-91 222 -91 224 -92 226 C-92 232 -92 238 -92 244 C-93 251 -93 257 -93 263 C-94 275 -94 287 -95 299 C-97 296 -97 294 -98 290 C-98 289 -98 288 -98 286 C-99 285 -99 284 -99 283 C-99 282 -99 282 -99 281 C-106 231 -110 168 -80 124 C-78 122 -76 119 -74 117 C-73 116 -72 115 -72 114 C-66 108 -60 104 -53 100 C-50 98 -50 98 -49 96 C-47 79 -56 64 -63 49 C-65 45 -66 41 -65 36 C-63 33 -63 33 -60 30 C-59 29 -58 28 -57 27 C-57 27 -56 26 -56 26 C-53 23 -51 21 -49 19 C-35 3 -21 -10 0 0 Z " transform="translate(141.0 42.0)" fill="#000"/></g></svg><svg x="325.3" y="1724.1" width="211.3" height="656.8" viewBox="0 0 231 718" overflow="visible"><filter id="f133" x="-15%" y="-15%" width="130%" height="130%"><feTurbulence type="fractalNoise" baseFrequency="0.0058" numOctaves="2" seed="33" result="n"><animate attributeName="seed" values="33;9;23;3;11;27;5;19" dur="1.143s" calcMode="discrete" repeatCount="indefinite"/></feTurbulence><feDisplacementMap in="SourceGraphic" in2="n" scale="13.79" xChannelSelector="R" yChannelSelector="G"/></filter><g filter="url(#f133)"><path d="M0 0 C1 -0 2 -0 2 -0 C3 -0 3 -0 5 -0 C5 -0 5 -0 7 -0 C9 0 11 1 13 1 C11 6 10 11 8 16 C-0 44 -5 74 8 102 C8 103 9 104 9 105 C11 107 11 107 11 109 C11 109 12 109 13 109 C19 110 26 111 33 112 C33 112 33 112 36 113 C41 114 44 114 47 119 C48 121 48 121 49 123 C49 124 49 124 50 126 C51 128 52 131 53 134 C53 135 53 136 54 137 C64 169 78 215 69 248 C66 245 66 243 65 239 C65 239 65 238 65 237 C64 236 64 234 64 232 C63 230 63 228 62 225 C61 219 60 213 58 207 C57 202 56 197 55 191 C55 189 54 187 54 184 C49 162 42 141 22 128 C17 126 13 123 8 122 C7 123 7 125 6 126 C6 127 6 128 6 128 C3 136 3 142 4 150 C4 151 4 152 4 153 C4 156 5 159 5 162 C6 165 6 167 6 169 C16 247 16 247 31 276 C32 278 33 279 34 281 C34 282 34 283 35 283 C38 291 38 299 38 308 C39 310 39 312 39 315 C39 318 39 321 39 325 C39 334 40 343 40 352 C40 353 40 354 40 355 C42 416 48 476 54 537 C54 537 54 537 54 541 C55 554 57 567 58 580 C58 585 59 590 59 595 C60 597 60 600 60 602 C60 605 61 608 61 611 C61 612 61 613 61 614 C62 621 62 627 62 633 C47 623 43 598 39 581 C36 565 35 548 33 531 C33 530 33 529 33 529 C31 501 30 473 29 445 C27 383 27 383 25 358 C25 358 25 358 25 356 C21 299 21 299 10 276 C-3 301 -4 331 -4 359 C-4 360 -4 361 -4 362 C-4 380 -3 397 -2 414 C1 472 -1 528 -5 585 C-5 586 -5 587 -5 588 C-5 590 -5 593 -6 595 C-6 596 -6 596 -6 597 C-6 602 -7 606 -7 611 C-8 611 -8 611 -8 611 C-11 588 -10 565 -10 541 C-10 511 -10 480 -11 450 C-11 449 -11 448 -11 447 C-11 435 -12 423 -12 411 C-14 332 -14 332 -14 300 C-14 297 -15 295 -15 292 C-15 277 -14 263 -8 249 C-7 248 -6 246 -6 245 C-5 244 -5 244 -5 243 C7 210 -12 160 -21 128 C-33 143 -36 167 -39 185 C-40 186 -40 187 -40 188 C-43 207 -44 227 -44 246 C-45 248 -45 250 -45 253 C-46 289 -47 326 -49 363 C-49 367 -49 372 -49 377 C-49 381 -49 384 -50 387 C-50 399 -50 411 -51 423 C-53 421 -55 418 -56 415 C-56 414 -57 414 -57 413 C-57 412 -57 411 -58 410 C-58 410 -58 410 -59 408 C-60 405 -61 402 -62 400 C-63 397 -64 394 -65 392 C-66 390 -67 388 -67 386 C-69 383 -70 379 -72 375 C-72 374 -73 373 -73 372 C-74 372 -74 371 -74 370 C-76 364 -74 357 -72 351 C-71 350 -71 348 -70 347 C-70 345 -69 342 -68 340 C-67 338 -67 335 -66 333 C-66 333 -65 332 -65 331 C-61 318 -60 304 -58 291 C-58 290 -58 288 -58 287 C-57 284 -57 281 -57 277 C-56 274 -56 271 -56 268 C-52 235 -52 235 -51 218 C-51 217 -51 216 -51 215 C-51 208 -51 200 -51 192 C-50 174 -50 156 -46 138 C-46 137 -46 136 -45 135 C-42 121 -36 110 -27 98 C-17 85 -17 85 -17 78 C-18 73 -20 69 -22 65 C-22 64 -23 63 -23 62 C-30 48 -39 43 -54 37 C-54 37 -55 36 -56 36 C-56 36 -56 36 -58 35 C-60 34 -60 34 -62 31 C-62 25 -58 22 -54 18 C-39 6 -19 -0 0 0 Z " transform="translate(118.2 42.9)" fill="#000"/></g></svg><svg x="1168.0" y="1735.0" width="250.0" height="635.0" viewBox="0 0 250 635" overflow="visible"><filter id="f134" x="-15%" y="-15%" width="130%" height="130%"><feTurbulence type="fractalNoise" baseFrequency="0.0066" numOctaves="2" seed="9" result="n"><animate attributeName="seed" values="9;23;3;11;27;5;19;33" dur="1.143s" calcMode="discrete" repeatCount="indefinite"/></feTurbulence><feDisplacementMap in="SourceGraphic" in2="n" scale="12.19" xChannelSelector="R" yChannelSelector="G"/></filter><g filter="url(#f134)"><path d="M0 0 C51 38 67 116 76 175 C77 184 78 193 79 202 C79 203 79 204 79 204 C81 231 82 263 71 288 C69 285 68 283 67 279 C66 278 66 277 66 276 C65 274 65 273 65 272 C64 270 64 269 63 267 C62 264 61 260 60 256 C59 253 58 249 57 245 C56 240 54 235 53 229 C49 218 46 207 43 196 C42 194 42 193 42 191 C41 188 40 184 39 181 C26 185 19 194 13 206 C8 219 7 234 6 248 C5 251 5 253 5 256 C4 262 4 268 3 275 C2 281 1 288 1 295 C-1 307 -2 320 -3 333 C-6 332 -8 330 -11 328 C-11 327 -12 326 -12 326 C-14 324 -15 323 -16 322 C-20 317 -25 312 -31 311 C-36 310 -39 311 -42 314 C-61 337 -61 377 -63 405 C-63 406 -64 407 -64 409 C-65 423 -65 437 -65 451 C-65 454 -65 457 -65 459 C-65 464 -65 468 -65 472 C-65 472 -65 473 -65 474 C-65 481 -64 489 -64 496 C-64 497 -64 499 -63 500 C-63 502 -63 505 -63 507 C-61 521 -67 531 -75 541 C-78 544 -80 547 -83 549 C-84 549 -85 549 -85 549 C-85 548 -86 546 -86 545 C-87 518 -89 491 -91 464 C-93 447 -94 431 -94 414 C-94 413 -94 412 -94 411 C-94 396 -93 382 -90 367 C-90 366 -90 365 -90 364 C-88 353 -84 342 -80 330 C-80 330 -79 329 -79 328 C-73 312 -67 296 -61 280 C-60 276 -58 272 -57 269 C-57 268 -57 267 -56 266 C-55 263 -54 259 -52 256 C-50 249 -47 243 -45 236 C-44 233 -43 230 -41 228 C-41 226 -40 225 -40 223 C-33 207 -35 193 -41 177 C-42 175 -42 175 -44 173 C-49 173 -53 176 -57 178 C-58 178 -58 178 -59 179 C-61 180 -64 181 -66 182 C-68 184 -70 185 -73 186 C-74 187 -75 187 -77 188 C-81 190 -84 192 -88 193 C-87 191 -87 189 -86 187 C-85 186 -84 184 -83 182 C-81 178 -79 173 -77 169 C-60 134 -51 97 -63 59 C-65 56 -66 52 -68 48 C-71 38 -68 26 -63 16 C-58 6 -52 -4 -41 -8 C-26 -11 -12 -8 0 0 Z " transform="translate(132.4 48.0)" fill="#000"/></g></svg><svg x="2011.8" y="1724.1" width="286.4" height="656.8" viewBox="0 0 300 688" overflow="visible"><filter id="f135" x="-15%" y="-15%" width="130%" height="130%"><feTurbulence type="fractalNoise" baseFrequency="0.0061" numOctaves="2" seed="23" result="n"><animate attributeName="seed" values="23;3;11;27;5;19;33;9" dur="1.143s" calcMode="discrete" repeatCount="indefinite"/></feTurbulence><feDisplacementMap in="SourceGraphic" in2="n" scale="13.21" xChannelSelector="R" yChannelSelector="G"/></filter><g filter="url(#f135)"><path d="M0 0 C12 4 25 11 32 23 C34 26 35 29 36 32 C40 46 47 57 56 68 C61 74 66 81 70 88 C71 89 72 90 72 91 C75 96 78 100 81 105 C84 111 88 117 92 123 C92 124 93 125 94 126 C95 128 96 130 97 132 C98 133 99 134 99 135 C100 135 100 136 101 137 C101 139 101 139 101 141 C100 142 100 142 99 143 C91 159 89 174 89 192 C89 193 89 194 89 195 C89 206 90 217 90 229 C92 260 92 290 84 321 C84 322 84 323 84 324 C82 329 82 329 81 331 C81 331 80 332 79 332 C79 332 79 331 79 330 C77 316 76 302 74 289 C73 282 72 275 71 268 C71 262 70 255 69 249 C69 246 68 244 68 241 C68 238 67 234 67 231 C67 230 67 229 66 228 C66 227 66 226 66 225 C66 224 66 223 66 222 C65 220 65 218 64 216 C62 229 60 241 58 254 C57 260 56 266 55 272 C48 313 42 354 40 396 C40 397 40 397 40 399 C40 415 39 431 39 448 C39 451 39 455 39 459 C39 467 39 474 39 482 C39 493 39 505 39 516 C39 518 39 519 39 520 C38 542 38 564 37 586 C33 587 30 587 25 584 C16 578 12 568 9 557 C9 553 9 549 9 545 C9 544 9 543 9 542 C9 538 9 535 10 532 C10 529 10 525 10 522 C10 516 10 510 10 504 C10 495 11 486 11 478 C11 474 11 470 11 466 C11 465 11 464 11 463 C11 457 11 451 12 446 C12 422 13 398 13 374 C13 374 13 373 13 372 C13 365 14 357 14 350 C14 335 14 319 15 304 C15 298 15 291 15 285 C15 283 15 281 15 279 C15 278 15 277 15 276 C15 275 15 275 15 274 C13 278 11 282 9 285 C9 286 8 287 7 289 C-6 313 -16 339 -24 365 C-24 366 -25 367 -25 369 C-31 389 -34 410 -37 431 C-38 434 -38 437 -38 439 C-39 445 -40 451 -41 456 C-42 465 -44 474 -45 483 C-45 486 -46 489 -46 492 C-46 492 -46 492 -47 494 C-47 499 -48 504 -49 509 C-52 531 -56 553 -59 575 C-60 578 -60 582 -61 585 C-62 592 -63 598 -64 604 C-65 604 -67 603 -68 603 C-68 603 -68 603 -70 602 C-78 599 -85 595 -89 587 C-93 577 -89 565 -86 554 C-81 536 -78 516 -75 497 C-73 487 -72 478 -70 468 C-70 466 -69 464 -69 462 C-62 422 -55 382 -45 342 C-44 341 -44 341 -44 340 C-34 301 -21 262 -3 226 C7 207 7 207 5 198 C-0 183 -15 167 -27 156 C-27 156 -28 156 -29 156 C-30 158 -30 158 -31 160 C-32 160 -32 161 -33 162 C-34 163 -34 163 -35 164 C-36 166 -37 168 -39 170 C-39 170 -40 171 -41 172 C-44 177 -47 181 -51 186 C-56 192 -61 199 -66 206 C-71 212 -76 219 -81 226 C-86 232 -91 239 -96 246 C-96 247 -97 247 -98 248 C-98 249 -99 250 -99 251 C-103 255 -106 260 -109 264 C-110 265 -110 266 -111 266 C-112 268 -113 270 -115 271 C-115 271 -115 271 -116 271 C-115 228 -90 188 -69 153 C-65 146 -61 139 -57 133 C-57 132 -57 132 -55 130 C-55 129 -54 128 -54 127 C-53 125 -52 124 -51 122 C-50 112 -53 102 -55 92 C-56 90 -56 88 -57 85 C-57 85 -57 85 -57 81 C-58 78 -58 77 -56 74 C-54 73 -53 72 -51 70 C-36 57 -31 37 -26 18 C-26 17 -26 16 -26 15 C-25 14 -25 12 -25 10 C-24 6 -23 4 -20 1 C-14 -3 -7 -2 0 0 Z " transform="translate(157.6 42.9)" fill="#000"/></g></svg><svg x="2896.5" y="1724.1" width="241.1" height="656.8" viewBox="0 0 247 673" overflow="visible"><filter id="f136" x="-15%" y="-15%" width="130%" height="130%"><feTurbulence type="fractalNoise" baseFrequency="0.0062" numOctaves="2" seed="3" result="n"><animate attributeName="seed" values="3;11;27;5;19;33;9;23" dur="1.143s" calcMode="discrete" repeatCount="indefinite"/></feTurbulence><feDisplacementMap in="SourceGraphic" in2="n" scale="12.92" xChannelSelector="R" yChannelSelector="G"/></filter><g filter="url(#f136)"><path d="M0 0 C2 10 4 20 5 30 C6 34 6 38 7 42 C8 47 8 51 9 56 C10 60 10 64 11 68 C11 69 11 71 11 72 C13 82 15 89 20 97 C21 99 22 101 23 102 C23 103 24 104 24 105 C27 110 30 115 33 120 C34 121 34 122 35 123 C57 164 77 208 79 255 C79 256 79 257 79 258 C79 269 79 281 76 292 C74 290 73 288 72 285 C72 283 72 282 71 281 C71 280 71 279 70 278 C70 276 69 274 69 272 C67 267 66 262 65 258 C64 255 63 252 62 250 C62 247 61 245 60 242 C57 232 57 232 52 228 C45 224 38 224 30 224 C29 224 29 224 27 224 C21 224 16 225 10 226 C9 229 9 232 9 235 C9 235 9 235 10 238 C10 239 10 240 10 241 C10 242 10 243 10 244 C10 247 11 249 11 252 C11 256 12 260 12 264 C13 274 14 283 15 293 C19 342 24 391 23 440 C23 443 23 446 23 449 C23 474 22 499 19 523 C19 524 19 524 19 525 C16 548 12 570 6 592 C3 589 3 585 2 582 C2 581 2 580 1 579 C1 576 0 573 -1 570 C-1 568 -1 566 -2 564 C-3 559 -4 553 -5 548 C-7 543 -8 537 -9 532 C-11 521 -14 511 -16 500 C-19 500 -21 502 -24 505 C-41 523 -50 552 -60 575 C-62 572 -62 569 -63 566 C-63 564 -63 563 -63 562 C-64 561 -64 560 -64 559 C-64 557 -64 556 -65 555 C-74 484 -61 419 -33 354 C-25 336 -16 316 -23 296 C-27 288 -32 282 -38 275 C-39 274 -39 274 -40 273 C-54 260 -71 252 -87 243 C-86 234 -85 226 -83 217 C-83 214 -83 212 -82 209 C-81 202 -80 195 -78 188 C-78 184 -77 179 -76 175 C-76 173 -76 172 -75 170 C-73 158 -72 148 -74 137 C-74 136 -75 135 -75 134 C-75 131 -76 128 -76 126 C-79 103 -79 103 -80 93 C-80 93 -80 93 -80 91 C-81 69 -75 51 -61 35 C-47 21 -21 0 0 0 Z " transform="translate(128.0 41.0)" fill="#000"/></g></svg><svg x="3756.6" y="1724.1" width="244.7" height="656.8" viewBox="0 0 253 679" overflow="visible"><filter id="f137" x="-15%" y="-15%" width="130%" height="130%"><feTurbulence type="fractalNoise" baseFrequency="0.0062" numOctaves="2" seed="11" result="n"><animate attributeName="seed" values="11;27;5;19;33;9;23;3" dur="1.143s" calcMode="discrete" repeatCount="indefinite"/></feTurbulence><feDisplacementMap in="SourceGraphic" in2="n" scale="13.04" xChannelSelector="R" yChannelSelector="G"/></filter><g filter="url(#f137)"><path d="M0 0 C1 2 2 4 2 7 C3 7 3 7 3 9 C4 11 5 14 5 16 C6 18 6 19 7 21 C8 25 10 30 11 34 C13 39 14 43 16 48 C19 57 22 66 25 74 C26 79 28 84 29 89 C32 98 35 106 38 114 C40 122 43 130 45 138 C48 146 51 154 53 163 C55 168 57 173 58 178 C59 180 60 182 60 184 C61 187 62 189 63 191 C63 192 63 193 64 194 C64 195 64 195 65 197 C65 199 65 199 64 202 C63 201 62 201 62 200 C52 191 43 183 33 174 C22 215 18 259 26 300 C26 302 27 303 27 304 C29 315 32 326 34 338 C35 341 36 345 37 349 C39 359 42 368 44 378 C46 386 47 393 49 400 C50 402 50 405 51 407 C56 429 60 451 60 473 C60 474 60 475 60 476 C60 489 59 500 56 512 C53 509 53 507 52 503 C52 502 52 502 52 501 C51 499 50 496 50 494 C49 492 49 491 49 489 C47 481 45 473 43 465 C36 434 27 404 8 378 C-2 403 -5 432 -9 458 C-9 459 -9 459 -9 462 C-10 468 -11 474 -11 480 C-16 515 -23 549 -38 582 C-38 583 -39 584 -39 585 C-41 589 -43 593 -46 597 C-44 576 -41 556 -38 535 C-37 529 -36 523 -35 517 C-33 499 -31 481 -28 464 C-27 454 -26 444 -24 435 C-24 430 -23 424 -22 419 C-20 400 -17 381 -15 362 C-15 361 -15 360 -14 359 C-12 337 -11 315 -11 292 C-11 291 -11 290 -11 288 C-11 271 -11 253 -14 236 C-14 235 -14 234 -15 232 C-20 201 -30 171 -46 143 C-47 145 -48 148 -48 150 C-49 151 -49 152 -49 153 C-51 157 -52 162 -54 166 C-54 167 -55 168 -55 169 C-56 171 -56 173 -57 175 C-59 181 -61 186 -63 192 C-77 234 -91 276 -105 318 C-105 318 -106 318 -106 318 C-105 305 -104 292 -102 279 C-101 278 -101 277 -101 276 C-97 249 -92 222 -87 196 C-84 184 -82 172 -80 160 C-80 159 -79 158 -79 158 C-74 132 -70 107 -66 81 C-62 55 -58 30 -37 12 C-30 7 -9 -5 0 0 Z " transform="translate(147.0 42.0)" fill="#000"/></g></svg><svg x="4606.7" y="1724.1" width="268.5" height="656.8" viewBox="0 0 278 680" overflow="visible"><filter id="f138" x="-15%" y="-15%" width="130%" height="130%"><feTurbulence type="fractalNoise" baseFrequency="0.0062" numOctaves="2" seed="27" result="n"><animate attributeName="seed" values="27;5;19;33;9;23;3;11" dur="1.143s" calcMode="discrete" repeatCount="indefinite"/></feTurbulence><feDisplacementMap in="SourceGraphic" in2="n" scale="13.06" xChannelSelector="R" yChannelSelector="G"/></filter><g filter="url(#f138)"><path d="M0 0 C6 5 8 12 10 20 C11 25 11 29 10 34 C10 35 10 36 10 38 C10 46 10 54 8 62 C4 95 11 128 17 160 C25 204 34 256 7 295 C-1 306 -11 315 -22 323 C-28 328 -33 333 -39 338 C-40 339 -41 340 -42 341 C-62 360 -68 384 -70 411 C-70 413 -70 415 -70 417 C-71 421 -71 424 -71 428 C-72 434 -72 440 -73 446 C-74 459 -75 471 -76 484 C-77 498 -78 511 -79 525 C-80 531 -80 537 -81 543 C-81 547 -82 550 -82 554 C-82 556 -82 557 -82 559 C-83 568 -84 576 -86 585 C-86 586 -86 587 -86 587 C-88 593 -88 593 -91 595 C-93 589 -94 584 -95 577 C-96 563 -100 553 -108 540 C-110 536 -112 532 -114 528 C-117 529 -120 530 -123 532 C-124 532 -125 533 -126 533 C-127 534 -127 534 -130 535 C-131 536 -132 536 -133 537 C-137 539 -141 541 -145 544 C-146 544 -146 544 -148 545 C-149 546 -149 546 -151 547 C-153 548 -153 548 -155 548 C-152 531 -148 514 -144 496 C-144 494 -143 491 -143 489 C-141 484 -140 478 -139 473 C-138 467 -136 460 -135 454 C-132 441 -129 428 -126 415 C-125 408 -123 400 -122 393 C-120 388 -119 383 -118 378 C-118 376 -117 374 -117 371 C-113 354 -108 337 -103 320 C-95 299 -90 274 -101 253 C-104 246 -110 235 -118 232 C-119 232 -119 232 -120 232 C-136 253 -148 276 -161 299 C-161 300 -162 301 -163 302 C-164 304 -165 307 -166 309 C-166 310 -167 311 -167 312 C-168 312 -168 312 -169 314 C-170 316 -170 316 -172 317 C-179 275 -159 226 -146 187 C-146 186 -146 186 -145 185 C-126 127 -101 64 -60 18 C-59 17 -58 16 -58 15 C-44 1 -19 -14 0 0 Z " transform="translate(214.0 45.0)" fill="#000"/></g></svg><svg x="302.5" y="2548.5" width="257.0" height="650.0" viewBox="0 0 257 650" overflow="visible"><filter id="f139" x="-15%" y="-15%" width="130%" height="130%"><feTurbulence type="fractalNoise" baseFrequency="0.0065" numOctaves="2" seed="5" result="n"><animate attributeName="seed" values="5;19;33;9;23;3;11;27" dur="1.143s" calcMode="discrete" repeatCount="indefinite"/></feTurbulence><feDisplacementMap in="SourceGraphic" in2="n" scale="12.48" xChannelSelector="R" yChannelSelector="G"/></filter><g filter="url(#f139)"><path d="M0 0 C4 3 6 7 9 12 C10 13 11 15 12 16 C12 17 13 18 13 18 C16 23 19 27 22 32 C23 33 23 34 24 35 C24 35 24 35 25 37 C26 38 26 39 27 39 C28 41 28 41 30 42 C30 41 30 40 31 40 C32 35 34 30 36 26 C36 25 36 25 37 23 C38 22 38 20 39 18 C40 16 41 13 42 11 C44 12 44 12 45 15 C47 25 47 34 42 43 C36 53 27 60 18 67 C17 68 16 69 15 70 C7 76 7 76 3 78 C3 78 3 78 3 81 C4 84 4 88 4 91 C4 93 5 94 5 96 C5 98 5 100 5 102 C5 103 5 103 6 106 C6 110 6 113 6 116 C7 116 8 115 10 115 C26 111 41 113 56 121 C56 122 56 122 56 123 C55 123 55 124 54 124 C51 126 48 128 45 129 C44 130 43 131 42 131 C35 135 28 139 22 143 C31 168 31 168 40 173 C43 174 46 174 50 175 C51 175 53 175 55 175 C56 175 56 175 57 175 C59 176 60 177 62 179 C65 187 63 196 62 204 C61 219 61 234 61 250 C61 251 61 252 61 254 C61 274 61 294 63 315 C63 322 63 329 63 336 C61 335 61 335 60 332 C54 313 54 292 54 271 C54 270 53 270 53 269 C53 262 53 255 53 249 C52 219 52 219 51 207 C51 207 51 207 51 205 C50 199 49 194 47 188 C45 187 45 187 42 187 C30 196 27 213 24 227 C24 232 24 238 24 243 C24 245 24 246 24 247 C24 258 25 270 32 279 C33 280 34 281 36 282 C36 282 36 282 38 284 C38 284 38 284 39 285 C39 286 39 286 39 287 C37 292 35 298 34 304 C33 306 32 308 32 310 C24 338 21 362 24 391 C24 394 24 397 24 401 C25 409 26 418 27 427 C31 478 31 478 32 501 C32 502 32 503 32 504 C33 519 33 535 33 550 C33 550 32 550 32 550 C28 517 25 483 22 450 C21 447 21 444 21 441 C19 420 16 399 15 378 C15 377 15 376 15 375 C14 363 14 351 14 338 C14 337 14 337 14 336 C14 300 14 300 19 291 C20 287 20 285 20 281 C10 277 10 277 5 277 C5 278 5 278 5 279 C6 282 6 284 7 287 C7 288 7 289 8 289 C10 302 7 313 4 325 C-3 353 -5 381 -6 409 C-11 483 -11 483 -20 503 C-20 503 -21 503 -21 503 C-20 481 -18 459 -17 436 C-17 434 -17 432 -16 429 C-16 421 -15 413 -15 405 C-14 397 -14 389 -13 382 C-13 375 -12 369 -12 362 C-12 358 -11 354 -11 350 C-9 321 -9 321 -7 307 C-6 295 -7 285 -14 275 C-17 278 -17 281 -18 284 C-19 285 -19 286 -19 286 C-22 297 -24 307 -26 318 C-26 321 -27 324 -27 327 C-28 329 -28 331 -29 333 C-29 334 -29 335 -29 336 C-29 336 -29 337 -29 338 C-30 340 -30 340 -32 343 C-31 312 -28 279 -20 249 C-18 253 -17 257 -16 261 C-16 262 -16 263 -16 263 C-15 266 -15 269 -15 272 C-10 270 -5 268 -1 264 C2 257 3 249 4 242 C4 241 4 239 5 238 C7 226 9 211 3 200 C-0 196 -3 195 -7 193 C-7 194 -7 194 -7 195 C-11 213 -15 230 -19 248 C-23 241 -22 233 -22 225 C-22 224 -22 224 -22 222 C-23 206 -16 197 -6 186 C-0 178 0 170 -0 161 C-0 160 -1 159 -1 158 C-1 156 -1 154 -1 152 C-2 152 -2 152 -3 152 C-12 154 -21 153 -29 150 C-27 146 -25 143 -22 139 C-22 139 -22 139 -20 137 C-19 136 -18 134 -17 133 C-21 131 -24 129 -28 127 C-27 125 -25 124 -24 122 C-20 122 -18 125 -15 128 C-11 127 -7 126 -4 122 C-3 114 -5 107 -7 100 C-8 99 -8 98 -8 96 C-11 88 -11 88 -12 84 C-33 75 -63 85 -84 92 C-92 95 -100 97 -108 94 C-112 90 -114 86 -115 81 C-111 81 -108 82 -105 83 C-100 84 -95 85 -91 83 C-85 79 -85 79 -84 76 C-84 72 -85 68 -86 63 C-86 62 -87 60 -87 58 C-87 58 -88 57 -88 56 C-88 54 -88 54 -87 50 C-83 58 -79 65 -75 73 C-69 73 -64 73 -58 73 C-56 73 -54 73 -52 73 C-4 73 -4 73 8 61 C8 61 9 60 9 60 C10 60 10 60 11 60 C11 60 11 60 12 58 C13 56 13 56 14 54 C14 54 15 53 15 53 C16 52 16 52 16 51 C18 45 14 39 12 34 C12 33 12 33 11 31 C10 28 9 25 8 22 C7 19 6 17 5 14 C4 12 3 10 2 8 C2 8 2 8 1 6 C1 6 1 6 1 4 C0 2 0 2 0 0 Z " transform="translate(155.0 42.0)" fill="#000"/><path d="M0 0 C0 2 1 3 1 5 C1 6 1 7 2 8 C2 8 2 9 2 10 C1 11 1 11 -1 11 C-2 11 -3 11 -4 11 C-4 11 -4 11 -7 11 C-9 11 -9 11 -10 10 C-10 8 -10 7 -10 5 C-9 5 -9 4 -9 3 C-9 2 -9 2 -9 1 C-5 -1 -4 -1 0 0 Z " transform="translate(196.0 136.0)" fill="#000"/></g></svg><svg x="1182.5" y="2585.5" width="221.0" height="576.0" viewBox="0 0 221 576" overflow="visible"><filter id="f140" x="-15%" y="-15%" width="130%" height="130%"><feTurbulence type="fractalNoise" baseFrequency="0.0073" numOctaves="2" seed="19" result="n"><animate attributeName="seed" values="19;33;9;23;3;11;27;5" dur="1.143s" calcMode="discrete" repeatCount="indefinite"/></feTurbulence><feDisplacementMap in="SourceGraphic" in2="n" scale="11.06" xChannelSelector="R" yChannelSelector="G"/></filter><g filter="url(#f140)"><path d="M0 0 C12 8 23 19 26 33 C27 37 27 41 28 45 C28 46 28 46 28 48 C28 52 28 55 29 58 C29 60 29 63 29 65 C30 70 30 74 30 79 C31 85 31 91 32 97 C32 102 33 106 33 111 C33 113 34 116 34 118 C42 211 42 211 23 239 C23 239 23 239 22 240 C21 234 20 229 20 223 C20 221 20 218 19 216 C19 213 19 210 19 206 C16 159 16 159 6 138 C-8 165 -10 190 -6 219 C-6 224 -5 229 -5 233 C-5 234 -5 235 -4 236 C-3 246 -2 257 -2 267 C-1 269 -1 270 -1 271 C2 316 3 363 -2 407 C-2 408 -2 409 -2 409 C-5 441 -9 473 -18 503 C-18 503 -18 503 -18 503 C-18 503 -18 502 -18 502 C-17 422 -15 343 -34 265 C-38 272 -41 278 -43 285 C-43 285 -43 285 -43 288 C-50 312 -51 336 -52 361 C-54 396 -56 429 -68 461 C-69 461 -69 461 -70 461 C-70 449 -70 438 -70 426 C-70 424 -69 422 -69 421 C-69 412 -68 404 -67 395 C-65 377 -66 358 -67 340 C-68 333 -68 325 -68 317 C-68 316 -68 314 -68 313 C-68 297 -66 282 -59 268 C-58 264 -56 261 -55 257 C-54 257 -54 256 -54 255 C-44 231 -36 204 -42 177 C-42 176 -42 176 -42 175 C-44 167 -48 160 -52 152 C-52 153 -52 154 -52 156 C-57 183 -63 207 -74 232 C-78 241 -82 251 -86 261 C-88 265 -89 269 -91 272 C-91 273 -92 274 -92 275 C-96 285 -101 296 -105 306 C-106 307 -106 308 -106 309 C-108 314 -110 318 -112 323 C-113 323 -113 323 -114 323 C-113 313 -112 303 -110 293 C-110 293 -110 293 -109 291 C-104 259 -95 230 -86 199 C-85 199 -85 198 -85 197 C-80 183 -76 169 -72 155 C-67 140 -62 125 -58 110 C-57 109 -57 108 -56 106 C-48 79 -46 52 -45 24 C-45 17 -43 12 -38 7 C-28 -1 -12 -6 0 0 Z " transform="translate(149.5 37.6)" fill="#000"/></g></svg><svg x="2033.5" y="2580.5" width="243.0" height="586.0" viewBox="0 0 243 586" overflow="visible"><filter id="f141" x="-15%" y="-15%" width="130%" height="130%"><feTurbulence type="fractalNoise" baseFrequency="0.0072" numOctaves="2" seed="33" result="n"><animate attributeName="seed" values="33;9;23;3;11;27;5;19" dur="1.143s" calcMode="discrete" repeatCount="indefinite"/></feTurbulence><feDisplacementMap in="SourceGraphic" in2="n" scale="11.25" xChannelSelector="R" yChannelSelector="G"/></filter><g filter="url(#f141)"><path d="M0 0 C8 7 8 7 9 12 C8 16 8 21 6 25 C6 26 5 27 5 29 C5 30 4 31 4 33 C3 34 3 35 2 37 C1 40 0 44 -1 47 C-2 51 -3 55 -5 58 C-6 62 -7 66 -8 70 C-11 80 -14 89 -17 98 C-16 98 -15 98 -15 99 C5 107 28 122 37 141 C40 151 40 161 40 171 C40 196 44 218 54 240 C55 241 55 242 56 244 C56 244 55 245 55 246 C48 240 42 234 35 229 C31 225 27 221 22 217 C19 215 16 213 14 210 C13 209 12 208 11 208 C10 207 10 206 9 206 C10 213 10 221 11 229 C11 231 11 234 12 237 C14 263 14 263 15 275 C15 275 15 276 15 277 C16 280 16 284 16 287 C17 294 17 300 17 307 C18 307 18 307 19 308 C41 317 59 337 68 358 C72 369 72 381 71 393 C71 394 71 395 71 397 C71 400 71 404 70 408 C70 411 70 413 70 416 C69 422 69 428 68 435 C68 442 67 449 67 456 C66 471 65 485 64 500 C63 500 63 500 62 500 C58 484 55 468 51 452 C49 445 48 437 46 430 C39 398 31 365 24 333 C20 333 18 336 15 338 C15 339 14 339 13 340 C5 347 -2 355 -9 364 C-10 365 -10 365 -11 366 C-20 378 -28 390 -36 403 C-37 405 -38 406 -40 408 C-42 412 -45 416 -47 420 C-48 417 -48 415 -47 412 C-47 411 -47 410 -47 409 C-46 408 -46 407 -46 406 C-46 406 -46 406 -45 404 C-45 402 -44 400 -44 398 C-43 394 -42 391 -41 388 C-40 382 -39 376 -37 371 C-35 361 -33 352 -30 343 C-30 340 -29 337 -28 334 C-13 272 -22 210 -36 148 C-37 144 -37 141 -37 137 C-43 141 -47 147 -52 153 C-52 153 -52 153 -53 154 C-63 167 -71 181 -79 194 C-80 195 -80 195 -81 196 C-83 200 -84 203 -86 206 C-87 207 -88 209 -88 210 C-89 211 -90 212 -90 213 C-92 216 -92 216 -95 218 C-103 187 -101 158 -85 131 C-83 127 -80 123 -77 120 C-76 119 -76 118 -75 117 C-66 106 -53 97 -40 91 C-42 87 -45 84 -48 80 C-49 79 -50 78 -51 77 C-52 76 -52 76 -53 75 C-55 73 -57 70 -59 68 C-61 65 -63 63 -66 61 C-69 57 -72 53 -75 50 C-77 47 -79 45 -81 43 C-85 38 -89 34 -93 29 C-95 27 -95 27 -97 25 C-97 21 -95 19 -93 17 C-92 16 -91 16 -91 15 C-90 14 -89 13 -88 13 C-88 12 -87 11 -86 10 C-60 -15 -31 -23 0 0 Z " transform="translate(136.0 51.3)" fill="#000"/></g></svg><svg x="2920.5" y="2613.5" width="193.0" height="520.0" viewBox="0 0 193 520" overflow="visible"><filter id="f142" x="-15%" y="-15%" width="130%" height="130%"><feTurbulence type="fractalNoise" baseFrequency="0.0081" numOctaves="2" seed="9" result="n"><animate attributeName="seed" values="9;23;3;11;27;5;19;33" dur="1.143s" calcMode="discrete" repeatCount="indefinite"/></feTurbulence><feDisplacementMap in="SourceGraphic" in2="n" scale="9.98" xChannelSelector="R" yChannelSelector="G"/></filter><g filter="url(#f142)"><path d="M0 0 C5 5 7 13 9 20 C9 20 9 20 10 22 C11 24 11 26 12 28 C12 31 13 33 14 36 C15 38 15 40 16 42 C16 42 16 42 16 44 C17 44 17 44 17 46 C17 47 18 48 18 48 C18 50 18 50 18 53 C19 53 19 53 21 54 C32 55 42 60 49 68 C60 86 55 108 53 127 C48 168 47 209 45 250 C41 356 41 356 35 407 C35 407 35 407 34 407 C34 368 34 330 34 291 C34 286 34 281 34 277 C34 276 34 275 34 274 C34 259 34 245 34 230 C34 215 34 199 34 184 C34 175 34 165 34 156 C34 150 34 143 34 137 C34 133 34 129 34 126 C34 122 34 118 34 114 C34 112 34 111 34 110 C34 110 34 110 34 107 C34 106 34 105 34 104 C34 101 35 98 35 95 C36 92 35 90 35 87 C31 83 27 80 21 78 C21 78 20 77 19 77 C17 76 15 75 13 74 C11 83 10 92 9 102 C9 103 8 105 8 107 C8 110 7 114 7 117 C6 121 6 126 5 130 C5 134 4 137 4 141 C4 142 3 144 3 145 C1 158 -0 170 -0 183 C-0 184 -0 185 -0 186 C-0 194 1 199 6 205 C17 217 15 237 14 252 C14 253 14 254 14 255 C14 278 13 300 12 323 C11 330 11 338 10 346 C6 430 6 430 -3 438 C-4 416 -4 394 -4 372 C-5 368 -5 363 -5 359 C-5 345 -5 332 -5 318 C-6 308 -6 297 -6 287 C-6 281 -6 276 -6 271 C-6 267 -6 264 -6 261 C-6 259 -6 258 -6 256 C-7 245 -7 234 -8 223 C-11 237 -14 251 -18 265 C-19 271 -21 277 -22 284 C-30 317 -38 350 -45 383 C-46 387 -47 391 -48 395 C-50 403 -51 411 -53 419 C-54 422 -55 426 -55 430 C-57 437 -58 443 -60 450 C-60 450 -60 450 -61 450 C-60 438 -59 426 -58 413 C-57 411 -57 409 -57 407 C-56 400 -56 394 -55 387 C-55 386 -55 385 -55 383 C-53 373 -52 362 -51 351 C-50 337 -48 323 -47 309 C-46 299 -45 290 -44 280 C-43 274 -42 268 -42 262 C-41 257 -41 252 -40 246 C-40 244 -40 242 -39 240 C-38 226 -35 213 -30 200 C-29 199 -29 199 -29 198 C-28 196 -28 194 -27 193 C-20 174 -21 159 -24 140 C-24 139 -25 137 -25 136 C-25 133 -26 130 -26 126 C-27 123 -27 119 -28 115 C-28 111 -29 107 -30 103 C-30 102 -30 102 -30 101 C-30 99 -30 97 -31 95 C-31 94 -31 93 -31 91 C-32 89 -32 86 -33 83 C-33 84 -33 84 -33 85 C-34 91 -35 97 -36 103 C-37 105 -37 107 -37 109 C-40 126 -44 141 -49 157 C-50 160 -51 163 -52 166 C-55 175 -58 184 -61 194 C-62 198 -63 202 -64 206 C-67 214 -69 221 -72 229 C-72 229 -72 229 -73 229 C-72 216 -70 203 -68 191 C-68 189 -68 188 -68 187 C-67 181 -66 175 -66 169 C-65 163 -64 157 -63 151 C-59 117 -54 84 -47 51 C-46 44 -47 36 -48 28 C-49 21 -49 15 -46 8 C-35 -5 -14 -9 0 0 Z " transform="translate(105.8 37.7)" fill="#000"/></g></svg><svg x="4605.5" y="2575.5" width="271.0" height="596.0" viewBox="0 0 271 596" overflow="visible"><filter id="f143" x="-15%" y="-15%" width="130%" height="130%"><feTurbulence type="fractalNoise" baseFrequency="0.0070" numOctaves="2" seed="23" result="n"><animate attributeName="seed" values="23;3;11;27;5;19;33;9" dur="1.143s" calcMode="discrete" repeatCount="indefinite"/></feTurbulence><feDisplacementMap in="SourceGraphic" in2="n" scale="11.44" xChannelSelector="R" yChannelSelector="G"/></filter><g filter="url(#f143)"><path d="M0 0 C6 5 7 13 8 20 C8 23 7 26 7 29 C6 54 6 54 10 60 C13 62 16 64 20 66 C23 68 25 71 27 74 C28 75 28 75 29 76 C44 97 52 122 57 147 C57 148 57 149 58 150 C60 163 62 176 64 190 C64 192 64 195 65 197 C65 203 66 208 67 213 C68 220 68 226 69 232 C70 238 71 244 72 250 C72 253 72 255 73 258 C73 261 74 265 74 268 C74 269 74 270 75 271 C75 276 76 281 76 286 C74 284 73 282 72 279 C71 278 71 277 71 276 C70 275 70 274 69 273 C69 272 69 271 68 270 C67 267 65 264 64 260 C64 260 64 260 63 257 C50 227 38 196 27 166 C23 166 22 168 20 171 C5 185 -2 203 -2 224 C-1 240 2 255 6 270 C6 271 7 273 7 274 C7 275 7 276 8 277 C10 291 11 304 12 318 C12 320 12 322 12 324 C12 330 13 335 13 341 C13 347 13 353 14 359 C14 369 15 379 15 389 C16 402 16 415 17 427 C17 438 18 449 18 460 C18 464 19 468 19 471 C19 477 19 482 20 488 C20 490 20 492 20 494 C20 497 20 499 20 502 C20 503 20 504 20 505 C21 510 21 515 21 520 C12 520 4 517 -1 510 C-5 506 -6 502 -7 496 C-8 495 -8 494 -8 493 C-9 490 -10 487 -10 484 C-11 481 -12 479 -12 477 C-14 471 -15 464 -17 458 C-18 452 -20 446 -21 439 C-23 430 -26 420 -28 410 C-31 399 -33 389 -36 378 C-37 373 -39 367 -40 361 C-40 360 -41 358 -41 357 C-42 354 -43 351 -43 347 C-44 347 -44 346 -44 345 C-44 344 -44 343 -45 342 C-45 342 -45 341 -45 340 C-45 338 -45 338 -45 335 C-46 335 -47 335 -47 335 C-48 336 -48 336 -48 337 C-50 340 -51 342 -53 344 C-75 367 -89 395 -103 423 C-109 434 -114 445 -120 455 C-121 455 -121 455 -121 455 C-122 437 -119 419 -113 401 C-113 401 -113 400 -113 399 C-106 379 -96 360 -87 341 C-70 307 -64 274 -66 237 C-66 236 -66 235 -66 234 C-66 232 -66 230 -66 227 C-67 228 -67 228 -68 228 C-73 231 -78 233 -83 235 C-85 236 -87 237 -89 238 C-92 240 -95 241 -97 242 C-98 243 -99 243 -100 243 C-101 244 -102 244 -102 245 C-103 245 -104 245 -104 246 C-106 246 -108 247 -110 247 C-104 223 -98 198 -91 173 C-89 165 -87 156 -84 147 C-84 145 -83 143 -83 141 C-79 125 -74 110 -70 94 C-70 91 -69 88 -68 85 C-66 76 -63 67 -61 58 C-60 54 -59 51 -58 47 C-58 45 -57 44 -57 42 C-54 34 -52 26 -50 17 C-50 17 -50 17 -49 15 C-48 11 -46 8 -43 5 C-38 3 -33 1 -28 -1 C-28 -1 -27 -1 -26 -1 C-18 -4 -7 -5 0 0 Z " transform="translate(158.5 39.6)" fill="#000"/></g></svg></svg>